<svg xmlns="http://www.w3.org/2000/svg" viewBox="0 0 360 385">
<path d="M 216,193 L 185,231 L 185,384 L 217,384 Z" fill="#7EDB28"/>
<path d="M 142,191 L 142,384 L 173,384 L 174,233 Z" fill="#7EDB28"/>
<path d="M 143,1 L 142,124 L 174,165 L 173,2 Z" fill="#7EDB28"/>
<path d="M 216,1 L 217,124 L 185,165 L 186,2 Z" fill="#7EDB28"/>
<path d="M 8,0 L 120,154 L 0,384 L 36,384 L 141,181 L 148,186 L 178,227 L 183,224 L 211,186 L 218,181 L 322,384 L 359,384 L 239,156 L 239,152 L 351,0 L 312,2 L 181,183 L 176,181 L 47,2 Z" fill="#7EDB28"/>
</svg>