<?xml version="1.0" encoding="UTF-8"?>
<svg version="1.1" xmlns="http://www.w3.org/2000/svg" width="150" height="150">
<path d="M0 0 C1.7367398 1.7367398 1.21417234 4.0044034 1.25 6.375 C0.98338201 33.45153837 -8.40058399 60.03290793 -24 82 C-24.58910156 82.83273438 -25.17820312 83.66546875 -25.78515625 84.5234375 C-33.03432795 94.11464928 -42.84051618 105.43757004 -53 112 C-61.0954267 111.84401875 -70.06285308 100.31143374 -75.2734375 94.96875 C-95.52156183 73.26713558 -108.4891155 43.55669754 -111 14 C-111.15210937 12.8346875 -111.30421875 11.669375 -111.4609375 10.46875 C-111.74612623 7.04648526 -111.81989502 4.33580145 -111 1 C-108.16458355 -2.14076899 -104.89008743 -3.4649655 -101 -5 C-99.97648437 -5.44730469 -98.95296875 -5.89460938 -97.8984375 -6.35546875 C-67.38300213 -19.01454839 -28.29315204 -17.85490177 0 0 Z " fill="#010300" transform="translate(130,25)"/>
<path d="M0 0 C1.7367398 1.7367398 1.21417234 4.0044034 1.25 6.375 C0.98338201 33.45153837 -8.40058399 60.03290793 -24 82 C-24.58910156 82.83273438 -25.17820312 83.66546875 -25.78515625 84.5234375 C-33.03432795 94.11464928 -42.84051618 105.43757004 -53 112 C-61.0954267 111.84401875 -70.06285308 100.31143374 -75.2734375 94.96875 C-95.52156183 73.26713558 -108.4891155 43.55669754 -111 14 C-111.15210937 12.8346875 -111.30421875 11.669375 -111.4609375 10.46875 C-111.74612623 7.04648526 -111.81989502 4.33580145 -111 1 C-108.16458355 -2.14076899 -104.89008743 -3.4649655 -101 -5 C-99.97648437 -5.44730469 -98.95296875 -5.89460938 -97.8984375 -6.35546875 C-67.38300213 -19.01454839 -28.29315204 -17.85490177 0 0 Z M-107 3 C-106.44040244 38.96686145 -91.23953139 70.90326652 -66 96 C-62.76202013 98.80451537 -59.44706867 101.45769339 -56 104 C-51.37475293 102.54659519 -48.2734874 99.89405522 -44.8125 96.625 C-44.24515137 96.09334229 -43.67780273 95.56168457 -43.09326172 95.01391602 C-17.64893816 70.7313521 -4.43159108 37.80247278 -3 3 C-10.72471096 -1.37271567 -18.2176589 -4.63821913 -26.8125 -6.875 C-27.97519409 -7.17893677 -27.97519409 -7.17893677 -29.16137695 -7.48901367 C-54.99848177 -13.85555327 -84.06532904 -10.61378545 -107 3 Z " fill="#67B83A" transform="translate(130,25)"/>
<path d="M0 0 C2.6015625 -0.5 2.6015625 -0.5 6 0 C8.54901966 2.36003267 10.41978912 5.14201274 12.375 8 C12.92027344 8.763125 13.46554688 9.52625 14.02734375 10.3125 C15.36923962 12.19586263 16.68700805 14.09637413 18 16 C18.33 10.72 18.66 5.44 19 0 C22.96 0 26.92 0 31 0 C31.495 7.92 31.495 7.92 32 16 C32.79664063 14.845 33.59328125 13.69 34.4140625 12.5 C35.48333888 10.99926122 36.55370879 9.49930117 37.625 8 C38.14707031 7.236875 38.66914062 6.47375 39.20703125 5.6875 C40.70861234 3.61123972 42.1190091 1.74153226 44 0 C47.3984375 -0.5 47.3984375 -0.5 50 0 C48.72598605 3.51832123 47.25703223 6.25812527 44.9609375 9.20703125 C44.09082031 10.33334961 44.09082031 10.33334961 43.203125 11.48242188 C42.59984375 12.25134766 41.9965625 13.02027344 41.375 13.8125 C40.45847656 14.99489258 40.45847656 14.99489258 39.5234375 16.20117188 C38.0207657 18.13820974 36.51286614 20.07092079 35 22 C35.79615885 23.59231771 36.59235018 25.18461919 37.38867188 26.77685547 C38.09492064 28.18968179 38.80063965 29.60277303 39.50585938 31.01611328 C41.50329074 35.01709774 43.51108585 39.01241827 45.53515625 43 C46.15209351 44.22033936 46.15209351 44.22033936 46.78149414 45.46533203 C47.58608842 47.05646518 48.39380981 48.64602135 49.20483398 50.23388672 C52 55.77493216 52 55.77493216 52 58 C50.02 58 48.04 58 46 58 C44.41524955 55.00074658 42.83246479 52.00045992 41.25 49 C40.8065625 48.16082031 40.363125 47.32164063 39.90625 46.45703125 C39.46796875 45.62558594 39.0296875 44.79414062 38.578125 43.9375 C38.18012695 43.18339844 37.78212891 42.42929688 37.37207031 41.65234375 C35.54487882 38.12020703 33.77846105 34.5569221 32 31 C31.67 39.91 31.34 48.82 31 58 C27.04 58 23.08 58 19 58 C18.67 49.09 18.34 40.18 18 31 C14.51275794 38.01389425 14.51275794 38.01389425 11.0300293 45.0300293 C10.59086182 45.91086182 10.15169434 46.79169434 9.69921875 47.69921875 C9.25408936 48.59471436 8.80895996 49.49020996 8.3503418 50.4128418 C5.53803624 55.8010179 5.53803624 55.8010179 4 58 C0.8125 58.3125 0.8125 58.3125 -2 58 C-0.60720622 53.43236625 1.25783866 49.28296982 3.4765625 45.0703125 C3.80667328 44.43511688 4.13678406 43.79992126 4.47689819 43.14547729 C5.52216266 41.13648152 6.57346663 39.13072039 7.625 37.125 C8.33894465 35.75541833 9.05249036 34.38562861 9.765625 33.015625 C11.50581304 29.6746601 13.25142112 26.33658046 15 23 C10.82085497 16.61862258 6.42607166 10.53566684 1.7578125 4.50390625 C0 2 0 2 0 0 Z " fill="#6BC13D" transform="translate(50,26)"/>
<path d="M0 0 C1.7367398 1.7367398 1.21417234 4.0044034 1.25 6.375 C0.98338201 33.45153837 -8.40058399 60.03290793 -24 82 C-24.58910156 82.83273438 -25.17820312 83.66546875 -25.78515625 84.5234375 C-33.03432795 94.11464928 -42.84051618 105.43757004 -53 112 C-61.0954267 111.84401875 -70.06285308 100.31143374 -75.2734375 94.96875 C-95.52156183 73.26713558 -108.4891155 43.55669754 -111 14 C-111.15210937 12.8346875 -111.30421875 11.669375 -111.4609375 10.46875 C-111.74612623 7.04648526 -111.81989502 4.33580145 -111 1 C-108.16458355 -2.14076899 -104.89008743 -3.4649655 -101 -5 C-99.97648437 -5.44730469 -98.95296875 -5.89460938 -97.8984375 -6.35546875 C-67.38300213 -19.01454839 -28.29315204 -17.85490177 0 0 Z M-104 -2 C-104.92554688 -1.608125 -105.85109375 -1.21625 -106.8046875 -0.8125 C-109.34424104 0.89123716 -109.34424104 0.89123716 -109.62890625 4.30859375 C-109.63976036 5.68503103 -109.61504209 7.06202309 -109.5625 8.4375 C-109.54445313 9.18612305 -109.52640625 9.93474609 -109.5078125 10.70605469 C-108.3061569 39.84620298 -95.75802358 67.08211565 -77 89 C-76.53803223 89.54172852 -76.07606445 90.08345703 -75.60009766 90.64160156 C-69.65533612 97.53860847 -63.33965641 103.58680438 -56 109 C-50.80938961 107.48442101 -47.56971074 104.20380971 -43.75 100.5625 C-43.08468262 99.93214844 -42.41936523 99.30179687 -41.73388672 98.65234375 C-18.39130035 76.21257208 -1.87473513 43.95287052 -0.75390625 11.25390625 C-0.7151417 7.82970445 -0.80824679 4.41959884 -1 1 C-33.02644719 -16.6120082 -70.8470887 -17.76122013 -104 -2 Z " fill="#101A07" transform="translate(130,25)"/>
<path d="M0 0 C2.4166613 3.22221507 4.13429198 6.01122082 5.91796875 9.5703125 C6.44970703 10.63121094 6.98144531 11.69210938 7.52929688 12.78515625 C8.07650391 13.88730469 8.62371094 14.98945312 9.1875 16.125 C9.74630859 17.23488281 10.30511719 18.34476563 10.88085938 19.48828125 C11.67266602 21.07576172 11.67266602 21.07576172 12.48046875 22.6953125 C12.96410889 23.66484863 13.44774902 24.63438477 13.94604492 25.63330078 C15 28 15 28 15 30 C16.98 30 18.96 30 21 30 C21.19412181 31.47831221 21.38012131 32.95769316 21.5625 34.4375 C21.71912109 35.67306641 21.71912109 35.67306641 21.87890625 36.93359375 C21.93884766 37.95646484 21.93884766 37.95646484 22 39 C21 40 21 40 18.6875 40.0625 C17.800625 40.041875 16.91375 40.02125 16 40 C14.68 40 13.36 40 12 40 C7.33333333 40 2.66666667 40 -2 40 C-2 39.34 -2 38.68 -2 38 C-2.66 38 -3.32 38 -4 38 C-4 38.66 -4 39.32 -4 40 C-13 40 -13 40 -16.5625 39.4375 C-19.85312994 38.69466488 -19.85312994 38.69466488 -22 40 C-22 38.35 -22 36.7 -22 35 C-16.555 34.505 -16.555 34.505 -11 34 C-11 33.01 -11 32.02 -11 31 C-10.071875 31.309375 -10.071875 31.309375 -9.125 31.625 C-8.42375 31.74875 -7.7225 31.8725 -7 32 C-6.34 31.34 -5.68 30.68 -5 30 C-3.35 30 -1.7 30 0 30 C0 20.1 0 10.2 0 0 Z " fill="#030601" transform="translate(81,55)"/>
<path d="M0 0 C0.33 0 0.66 0 1 0 C1 9.57 1 19.14 1 29 C4.96 29 8.92 29 13 29 C13 29.33 13 29.66 13 30 C11.35 30.33 9.7 30.66 8 31 C8 31.66 8 32.32 8 33 C5.83125748 32.49396008 4.00032373 32.00016187 2 31 C2 31.99 2 32.98 2 34 C0.5437328 34.36256858 -0.91511185 34.71479793 -2.375 35.0625 C-3.59316406 35.35833984 -3.59316406 35.35833984 -4.8359375 35.66015625 C-7 36 -7 36 -9 35 C-9 36.65 -9 38.3 -9 40 C-13 40 -17 40 -21 40 C-21 38.02 -21 36.04 -21 34 C-19.515 33.505 -19.515 33.505 -18 33 C-18.66 32.01 -19.32 31.02 -20 30 C-18.02 30 -16.04 30 -14 30 C-13.81993408 28.89966431 -13.81993408 28.89966431 -13.63623047 27.77709961 C-13.00861713 25.03761315 -12.14893443 23.02970061 -10.8203125 20.56640625 C-10.38589844 19.75236328 -9.95148437 18.93832031 -9.50390625 18.09960938 C-9.04886719 17.26236328 -8.59382813 16.42511719 -8.125 15.5625 C-7.23127982 13.89739887 -6.33803955 12.23204005 -5.4453125 10.56640625 C-5.02411133 9.78410645 -4.60291016 9.00180664 -4.16894531 8.19580078 C-2.72730724 5.48776135 -1.3521875 2.75362687 0 0 Z " fill="#020500" transform="translate(68,55)"/>
<path d="M0 0 C0.33 0 0.66 0 1 0 C0.5134609 6.83210543 -0.94044778 12.37915084 -3.5625 18.6875 C-3.92037598 19.55963135 -4.27825195 20.4317627 -4.64697266 21.33032227 C-13.32501909 41.99152305 -28.76788276 64.61491927 -48 77 C-56.09221153 76.8440807 -65.03736427 65.32745802 -70.2578125 59.99609375 C-77.26541844 52.49221963 -83.46605617 44.2349277 -88 35 C-87.01 35 -86.02 35 -85 35 C-83.1953125 37.31640625 -83.1953125 37.31640625 -81.125 40.5625 C-72.78651948 53.12702241 -62.97144564 63.83267676 -51 73 C-46.0220802 71.49352427 -42.93664424 68.56307708 -39.25 65.0625 C-38.63165283 64.47911865 -38.01330566 63.8957373 -37.3762207 63.29467773 C-19.06743176 45.74507445 -7.78984156 23.84163628 0 0 Z " fill="#080F03" transform="translate(125,60)"/>
<path d="M0 0 C5.6612706 -0.31614888 9.71699531 0.63163384 14.875 2.6875 C15.57246338 2.95715576 16.26992676 3.22681152 16.98852539 3.50463867 C29.42435527 8.42435527 29.42435527 8.42435527 33 12 C33.69606781 19.79060508 32.82299771 27.37559331 31.625 35.0625 C31.49899414 35.88347168 31.37298828 36.70444336 31.24316406 37.55029297 C30.60034724 41.42402576 29.88888397 44.51983601 28 48 C26.90908198 43.22177908 27.25131502 39.80981133 28.375 35.0625 C30.0927572 27.38055029 30.6766921 19.8597265 31 12 C30.32195312 11.73058594 29.64390625 11.46117187 28.9453125 11.18359375 C26.83094967 10.33392275 24.72218103 9.47028059 22.6171875 8.59765625 C15.18068889 5.53434555 7.84764058 2.85993976 0 1 C0 0.67 0 0.34 0 0 Z " fill="#14210A" transform="translate(98,14)"/>
<path d="M0 0 C0.33 0 0.66 0 1 0 C1.15855469 1.17433594 1.31710938 2.34867188 1.48046875 3.55859375 C2.80918699 12.88007822 4.53521748 21.77987098 7.46166992 30.74194336 C9.09391349 35.81217301 9.09391349 35.81217301 8 38 C7.01 38.495 7.01 38.495 6 39 C-3.00464091 14.22833962 -3.00464091 14.22833962 -2 3 C-1.34 2.01 -0.68 1.02 0 0 Z " fill="#60A834" transform="translate(23,35)"/>
<path d="M0 0 C0.33 0 0.66 0 1 0 C3.49209096 14.84419396 -0.09432211 30.30385341 -6 44 C-6.99 43.67 -7.98 43.34 -9 43 C-8.82984375 42.3915625 -8.6596875 41.783125 -8.484375 41.15625 C-7.64162267 38.10799688 -6.81983691 35.05449785 -6 32 C-5.49533203 30.15341797 -5.49533203 30.15341797 -4.98046875 28.26953125 C-2.48375973 18.8998592 -0.97461063 9.64351573 0 0 Z " fill="#60A735" transform="translate(126,33)"/>
<path d="M0 0 C4.5 5.625 4.5 5.625 4.390625 10.51953125 C4.37773438 11.54111328 4.36484375 12.56269531 4.3515625 13.61523438 C4.31804687 14.67033203 4.28453125 15.72542969 4.25 16.8125 C4.23195313 17.88693359 4.21390625 18.96136719 4.1953125 20.06835938 C4.14829392 22.71315465 4.0825916 25.35611589 4 28 C2.68 28 1.36 28 0 28 C0 18.76 0 9.52 0 0 Z " fill="#70D041" transform="translate(70,55)"/>
<path d="M0 0 C2.50357861 0.8345262 4.66785852 1.79371992 7 3 C7 4.98 7 6.96 7 9 C-2 9 -2 9 -5.5625 8.4375 C-8.85312994 7.69466488 -8.85312994 7.69466488 -11 9 C-11 7.35 -11 5.7 -11 4 C-5.555 3.505 -5.555 3.505 0 3 C0 2.01 0 1.02 0 0 Z " fill="#213810" transform="translate(70,86)"/>
<path d="M0 0 C2 2 2 2 2.13525391 4.88916016 C2.08288574 6.09362793 2.03051758 7.2980957 1.9765625 8.5390625 C1.925 9.84101562 1.8734375 11.14296875 1.8203125 12.484375 C1.75543042 13.86459379 1.69032333 15.24480202 1.625 16.625 C1.56676301 18.01298149 1.50945967 19.4010025 1.453125 20.7890625 C1.31128555 24.19320926 1.15983765 27.59665846 1 31 C-1.31 31 -3.62 31 -6 31 C-6.33 22.42 -6.66 13.84 -7 5 C-6.01 5.33 -5.02 5.66 -4 6 C-4 13.92 -4 21.84 -4 30 C-2.68 30 -1.36 30 0 30 C-0.05329468 28.69011108 -0.05329468 28.69011108 -0.10766602 27.35375977 C-0.23662253 24.12424949 -0.36097912 20.89460491 -0.48217773 17.66479492 C-0.53566026 16.26498319 -0.59099434 14.86524096 -0.64819336 13.46557617 C-0.72992949 11.4577104 -0.80453025 9.44955813 -0.87890625 7.44140625 C-0.9260376 6.23170166 -0.97316895 5.02199707 -1.02172852 3.77563477 C-1 1 -1 1 0 0 Z " fill="#487A27" transform="translate(80,53)"/>
<path d="M0 0 C1.32 0 2.64 0 4 0 C4.10822792 3.06345144 4.18741479 6.1230601 4.25 9.1875 C4.28351563 10.05181641 4.31703125 10.91613281 4.3515625 11.80664062 C4.37089844 13.06831055 4.37089844 13.06831055 4.390625 14.35546875 C4.41157227 15.12528076 4.43251953 15.89509277 4.45410156 16.68823242 C4 19 4 19 0 24 C0 16.08 0 8.16 0 0 Z " fill="#71CF42" transform="translate(76,26)"/>
<path d="M0 0 C1.32 0 2.64 0 4 0 C4 7.92 4 15.84 4 24 C-0.5 18.375 -0.5 18.375 -0.390625 14.35546875 C-0.37773438 13.51435547 -0.36484375 12.67324219 -0.3515625 11.80664062 C-0.31804687 10.94232422 -0.28453125 10.07800781 -0.25 9.1875 C-0.23195313 8.30384766 -0.21390625 7.42019531 -0.1953125 6.50976562 C-0.14838513 4.33937457 -0.07664731 2.16954481 0 0 Z " fill="#71CF42" transform="translate(70,26)"/>
<path d="M0 0 C-2.67213617 3.28122603 -6.18655203 4.56992593 -10 6.125 C-10.6290625 6.38925781 -11.258125 6.65351563 -11.90625 6.92578125 C-14.58210596 8.04261096 -17.24840871 9.0828029 -20 10 C-20 14.62 -20 19.24 -20 24 C-22.05279359 19.89441282 -22.2216942 18.19793315 -22.125 13.75 C-22.10695313 12.67234375 -22.08890625 11.5946875 -22.0703125 10.484375 C-22.04710938 9.66453125 -22.02390625 8.8446875 -22 8 C-19.730384 6.85170023 -17.45939222 5.70628022 -15.1875 4.5625 C-14.54490234 4.23701172 -13.90230469 3.91152344 -13.24023438 3.57617188 C-8.59378086 1.24090767 -5.21081502 -0.14083284 0 0 Z " fill="#68B83B" transform="translate(43,18)"/>
<path d="M0 0 C0.66 0 1.32 0 2 0 C2.33 8.25 2.66 16.5 3 25 C1.68 25 0.36 25 -1 25 C-0.67 16.75 -0.34 8.5 0 0 Z " fill="#4E7B29" transform="translate(74,26)"/>
<path d="M0 0 C0.99 0.66 1.98 1.32 3 2 C2.35083537 8.00477279 0.14204997 13.400781 -2 19 C-2.99 18.67 -3.98 18.34 -5 18 C-3.36959185 11.98922864 -1.72852643 5.98336072 0 0 Z " fill="#5FA634" transform="translate(122,58)"/>
<path d="M0 0 C0.38218767 1.65614657 0.71395102 3.32457024 1 5 C0 6 0 6 -2.3125 6.0625 C-3.199375 6.041875 -4.08625 6.02125 -5 6 C-6.32 6 -7.64 6 -9 6 C-9.33 6 -9.66 6 -10 6 C-10 4.35 -10 2.7 -10 1 C-3.375 0 -3.375 0 0 0 Z " fill="#56952F" transform="translate(102,89)"/>
<path d="M0 0 C0.66 0 1.32 0 2 0 C2 7.92 2 15.84 2 24 C1.34 24 0.68 24 0 24 C-0.1958691 20.18788097 -0.38029565 16.37529466 -0.5625 12.5625 C-0.61857422 11.47388672 -0.67464844 10.38527344 -0.73242188 9.26367188 C-0.78076172 8.22919922 -0.82910156 7.19472656 -0.87890625 6.12890625 C-0.9260376 5.17056885 -0.97316895 4.21223145 -1.02172852 3.22485352 C-1 1 -1 1 0 0 Z " fill="#6DCA3F" transform="translate(77,58)"/>
<path d="M0 0 C2.31 0 4.62 0 7 0 C7 1.32 7 2.64 7 4 C7.66 4 8.32 4 9 4 C9 3.01 9 2.02 9 1 C9.66 1 10.32 1 11 1 C10.67 2.65 10.34 4.3 10 6 C6.66666667 6 3.33333333 6 0 6 C0 4.02 0 2.04 0 0 Z " fill="#528C2D" transform="translate(47,89)"/>
<path d="M0 0 C1.65 0.33 3.3 0.66 5 1 C4.67 2.32 4.34 3.64 4 5 C0.27569643 5.69289369 -3.21083746 6.11144596 -7 6 C-6.34 4.35 -5.68 2.7 -5 1 C-4.01 1 -3.02 1 -2 1 C-1.67 1.66 -1.34 2.32 -1 3 C-0.67 2.01 -0.34 1.02 0 0 Z " fill="#56932F" transform="translate(86,89)"/>
<path d="M0 0 C0.33 0 0.66 0 1 0 C0.69156849 8.79029799 -2.56777413 16.03345739 -6 24 C-6.66 23.01 -7.32 22.02 -8 21 C-7.2004312 18.43123605 -6.33348465 16.13246864 -5.25 13.6875 C-4.6911266 12.37958099 -4.13381344 11.07099411 -3.578125 9.76171875 C-3.30806641 9.13185059 -3.03800781 8.50198242 -2.75976562 7.85302734 C-1.70408464 5.27827841 -0.83880912 2.65211708 0 0 Z " fill="#111C07" transform="translate(125,60)"/>
<path d="M0 0 C2.40785992 3.2104799 3.68197635 5.35008834 5 9 C4.01 9.495 4.01 9.495 3 10 C2.67 16.27 2.34 22.54 2 29 C1.67 29 1.34 29 1 29 C0.67 19.43 0.34 9.86 0 0 Z " fill="#0A1704" transform="translate(81,55)"/>
<path d="M0 0 C2.58034534 3.87051802 1.95229447 5.41529303 1.25 9.9375 C1.06953125 11.16339844 0.8890625 12.38929687 0.703125 13.65234375 C0.10676485 16.49168067 -0.53788384 18.52803243 -2 21 C-3.16384134 16.05174743 -2.67338225 12.0034276 -1.5625 7.125 C-1.41490234 6.43664063 -1.26730469 5.74828125 -1.11523438 5.0390625 C-0.75317961 3.35725971 -0.37793884 1.67830466 0 0 Z " fill="#1B300D" transform="translate(128,41)"/>
<path d="M0 0 C0.33 0 0.66 0 1 0 C1.66 5.94 2.32 11.88 3 18 C2.01 18.33 1.02 18.66 0 19 C-0.33895656 17.27192682 -0.67091525 15.54248026 -1 13.8125 C-1.185625 12.84957031 -1.37125 11.88664062 -1.5625 10.89453125 C-2.61606161 3.92409241 -2.61606161 3.92409241 0 0 Z " fill="#5C9F32" transform="translate(23,35)"/>
<path d="M0 0 C-0.66 1.32 -1.32 2.64 -2 4 C-2.66 4 -3.32 4 -4 4 C-4 8.62 -4 13.24 -4 18 C-6.05279359 13.89441282 -6.2216942 12.19793315 -6.125 7.75 C-6.10695313 6.67234375 -6.08890625 5.5946875 -6.0703125 4.484375 C-6.04710938 3.66453125 -6.02390625 2.8446875 -6 2 C-2.25 0 -2.25 0 0 0 Z " fill="#6FC63F" transform="translate(27,24)"/>
<path d="M0 0 C2 2 2 2 2.13525391 4.88916016 C2.08288574 6.09362793 2.03051758 7.2980957 1.9765625 8.5390625 C1.925 9.84101562 1.8734375 11.14296875 1.8203125 12.484375 C1.75543042 13.86459379 1.69032333 15.24480202 1.625 16.625 C1.56676301 18.01298149 1.50945967 19.4010025 1.453125 20.7890625 C1.31128555 24.19320926 1.15983765 27.59665846 1 31 C-0.65 31 -2.3 31 -4 31 C-2.68 30.67 -1.36 30.34 0 30 C-0.03552979 29.12674072 -0.07105957 28.25348145 -0.10766602 27.35375977 C-0.23662253 24.12424949 -0.36097912 20.89460491 -0.48217773 17.66479492 C-0.53566026 16.26498319 -0.59099434 14.86524096 -0.64819336 13.46557617 C-0.72992949 11.4577104 -0.80453025 9.44955813 -0.87890625 7.44140625 C-0.94960327 5.62684937 -0.94960327 5.62684937 -1.02172852 3.77563477 C-1 1 -1 1 0 0 Z " fill="#599831" transform="translate(80,53)"/>
<path d="M0 0 C2 2 2 2 2.13525391 4.79736328 C2.08288574 5.95993652 2.03051758 7.12250977 1.9765625 8.3203125 C1.925 9.57714844 1.8734375 10.83398438 1.8203125 12.12890625 C1.75543074 13.46094835 1.69032366 14.7929795 1.625 16.125 C1.56676177 17.46480294 1.50945844 18.80464687 1.453125 20.14453125 C1.31129726 23.43020732 1.15985087 26.71515936 1 30 C2.32 30.33 3.64 30.66 5 31 C3.35 31 1.7 31 0 31 C-0.16727437 26.74607233 -0.32786758 22.49196191 -0.48217773 18.23754883 C-0.53566237 16.78923699 -0.59099659 15.34099225 -0.64819336 13.89282227 C-0.72992512 11.81541418 -0.80507768 9.7378583 -0.87890625 7.66015625 C-0.9260376 6.40855713 -0.97316895 5.15695801 -1.02172852 3.86743164 C-1 1 -1 1 0 0 Z " fill="#60A335" transform="translate(69,53)"/>
<path d="M0 0 C0.33 0 0.66 0 1 0 C0.67 9.24 0.34 18.48 0 28 C-0.33 28 -0.66 28 -1 28 C-1.02505615 27.40461426 -1.0501123 26.80922852 -1.07592773 26.19580078 C-1.19177494 23.50530864 -1.31455196 20.8151766 -1.4375 18.125 C-1.47681641 17.18785156 -1.51613281 16.25070313 -1.55664062 15.28515625 C-1.59853516 14.38925781 -1.64042969 13.49335937 -1.68359375 12.5703125 C-1.73858032 11.32918701 -1.73858032 11.32918701 -1.79467773 10.06298828 C-1.88238327 7.93820571 -1.88238327 7.93820571 -3 6 C-2.06553465 3.96855359 -1.06775224 1.96466413 0 0 Z " fill="#081503" transform="translate(68,55)"/>
<path d="M0 0 C0.99 0 1.98 0 3 0 C3 4.95 3 9.9 3 15 C2.01 15.495 2.01 15.495 1 16 C0.67 10.72 0.34 5.44 0 0 Z " fill="#6DC03D" transform="translate(126,26)"/>
<path d="M0 0 C0.33 0 0.66 0 1 0 C1 4.95 1 9.9 1 15 C-2 14 -2 14 -3.75 11.625 C-5 9 -5 9 -4 6 C-3.01 7.32 -2.02 8.64 -1 10 C-0.67 6.7 -0.34 3.4 0 0 Z " fill="#081403" transform="translate(67,26)"/>
<path d="M0 0 C0.66 0.66 1.32 1.32 2 2 C0.35 4.97 -1.3 7.94 -3 11 C-3.99 11 -4.98 11 -6 11 C-4.02 7.37 -2.04 3.74 0 0 Z " fill="#070F02" transform="translate(60,71)"/>
<path d="M0 0 C1.90401138 1.90401138 2.93520439 3.33425686 3.19921875 6.046875 C3.1886578 8.03233273 3.09915043 10.0169914 3 12 C0.89366282 10.29171079 0.06198392 9.47851584 -0.29296875 6.73828125 C-0.25816406 5.93777344 -0.22335938 5.13726562 -0.1875 4.3125 C-0.16042969 3.50425781 -0.13335938 2.69601563 -0.10546875 1.86328125 C-0.07066406 1.24839844 -0.03585938 0.63351563 0 0 Z " fill="#69BA3A" transform="translate(24,50)"/>
<path d="M0 0 C0 0.66 0 1.32 0 2 C-2.97 2.66 -5.94 3.32 -9 4 C-9.66 3.01 -10.32 2.02 -11 1 C-3.57142857 -1.42857143 -3.57142857 -1.42857143 0 0 Z " fill="#5EA434" transform="translate(51,16)"/>
<path d="M0 0 C7.92 0 15.84 0 24 0 C24 0.33 24 0.66 24 1 C16.08 1 8.16 1 0 1 C0 0.67 0 0.34 0 0 Z " fill="#000300" transform="translate(63,9)"/>
<path d="M0 0 C0.33 0 0.66 0 1 0 C1.24878997 2.43694274 1.47463404 4.87238389 1.6875 7.3125 C1.79674805 8.34793945 1.79674805 8.34793945 1.90820312 9.40429688 C2.07421875 11.42578125 2.07421875 11.42578125 2 15 C1.01 15.99 0.02 16.98 -1 18 C-0.505 9.09 -0.505 9.09 0 0 Z " fill="#091503" transform="translate(82,26)"/>
<path d="M0 0 C1.32 0 2.64 0 4 0 C4.33 1.65 4.66 3.3 5 5 C3.35 5 1.7 5 0 5 C0 3.35 0 1.7 0 0 Z " fill="#62AC36" transform="translate(72,90)"/>
<path d="M0 0 C1.98 0 3.96 0 6 0 C6 1.65 6 3.3 6 5 C5.38125 4.814375 4.7625 4.62875 4.125 4.4375 C1.95839822 3.76313824 1.95839822 3.76313824 0 5 C0 3.35 0 1.7 0 0 Z " fill="#66B239" transform="translate(59,90)"/>
<path d="M0 0 C0.66 0 1.32 0 2 0 C3.32 2.97 4.64 5.94 6 9 C5.01 9.495 5.01 9.495 4 10 C0 4.5 0 4.5 0 0 Z " fill="#0B1604" transform="translate(43,92)"/>
<path d="M0 0 C1.65 0 3.3 0 5 0 C4.67 1.32 4.34 2.64 4 4 C2.68 4.33 1.36 4.66 0 5 C0 3.35 0 1.7 0 0 Z " fill="#5EA334" transform="translate(66,90)"/>
<path d="M0 0 C0.33 0 0.66 0 1 0 C0.88601335 1.62580966 0.75844341 3.25067157 0.625 4.875 C0.52058594 6.23238281 0.52058594 6.23238281 0.4140625 7.6171875 C0 10 0 10 -2 12 C-2.28571429 3.42857143 -2.28571429 3.42857143 0 0 Z " fill="#6DC33D" transform="translate(125,50)"/>
<path d="M0 0 C1.4540625 0.0309375 1.4540625 0.0309375 2.9375 0.0625 C2.9375 1.0525 2.9375 2.0425 2.9375 3.0625 C1.125 3.75 1.125 3.75 -1.0625 4.0625 C-2.8125 2.625 -2.8125 2.625 -4.0625 1.0625 C-3.0625 0.0625 -3.0625 0.0625 0 0 Z " fill="#020700" transform="translate(75.0625,132.9375)"/>
<path d="M0 0 C1.65 0 3.3 0 5 0 C4.67 1.32 4.34 2.64 4 4 C2.68 4.33 1.36 4.66 0 5 C0 3.35 0 1.7 0 0 Z " fill="#61A735" transform="translate(92,90)"/>
<path d="M0 0 C1.98362069 2.91708924 1.9876191 4.12380904 1.625 7.75 C1.41875 8.8225 1.2125 9.895 1 11 C-1.14418558 7.78372163 -1.67582137 5.80909895 -2 2 C-1.34 1.34 -0.68 0.68 0 0 Z " fill="#58992F" transform="translate(27,58)"/>
<path d="M0 0 C0.99 0 1.98 0 3 0 C3.33 1.32 3.66 2.64 4 4 C2.02 4.33 0.04 4.66 -2 5 C-1.34 3.35 -0.68 1.7 0 0 Z " fill="#62AA36" transform="translate(81,90)"/>
<path d="M0 0 C0.33 0.99 0.66 1.98 1 3 C1.66 3 2.32 3 3 3 C3 2.01 3 1.02 3 0 C3.66 0 4.32 0 5 0 C4.67 1.65 4.34 3.3 4 5 C2.68 5 1.36 5 0 5 C0 3.35 0 1.7 0 0 Z " fill="#63AD37" transform="translate(53,90)"/>
<path d="M0 0 C2.30903272 3.98352209 1.86516528 6.50114053 1 11 C0.34 10.34 -0.32 9.68 -1 9 C-0.9765625 6.8359375 -0.9765625 6.8359375 -0.625 4.375 C-0.51414062 3.55773438 -0.40328125 2.74046875 -0.2890625 1.8984375 C-0.19367188 1.27195313 -0.09828125 0.64546875 0 0 Z " fill="#2E4F1B" transform="translate(126,51)"/>
<path d="M0 0 C0.33 0 0.66 0 1 0 C1.33 3.3 1.66 6.6 2 10 C0.68 10 -0.64 10 -2 10 C-1.34 6.7 -0.68 3.4 0 0 Z " fill="#496E27" transform="translate(75,41)"/>
<path d="M0 0 C0.33 0 0.66 0 1 0 C1 3.96 1 7.92 1 12 C0.67 12 0.34 12 0 12 C0 8.04 0 4.08 0 0 Z " fill="#000000" transform="translate(132,26)"/>
<path d="M0 0 C0.33 0 0.66 0 1 0 C1 3.96 1 7.92 1 12 C0.67 12 0.34 12 0 12 C0 8.04 0 4.08 0 0 Z " fill="#000000" transform="translate(17,26)"/>
<path d="M0 0 C0.33 0 0.66 0 1 0 C1 2.64 1 5.28 1 8 C0.67 8 0.34 8 0 8 C0 5.36 0 2.72 0 0 Z " fill="#000000" transform="translate(131,39)"/>
<path d="M0 0 C0.33 0 0.66 0 1 0 C1 2.64 1 5.28 1 8 C0.67 8 0.34 8 0 8 C0 5.36 0 2.72 0 0 Z " fill="#000000" transform="translate(18,39)"/>
<path d="M0 0 C2.64 0 5.28 0 8 0 C8 0.33 8 0.66 8 1 C5.36 1 2.72 1 0 1 C0 0.67 0 0.34 0 0 Z " fill="#000000" transform="translate(55,10)"/>
<path d="M0 0 C2.31 0 4.62 0 7 0 C7 0.33 7 0.66 7 1 C4.69 1 2.38 1 0 1 C0 0.67 0 0.34 0 0 Z " fill="#000000" transform="translate(88,10)"/>
<path d="M0 0 C0.66 0.33 1.32 0.66 2 1 C0.02 1.99 0.02 1.99 -2 3 C-1.34 2.01 -0.68 1.02 0 0 Z " fill="#000000" transform="translate(87,128)"/>
<path d="M0 0 C0 0.99 0 1.98 0 3 C-0.99 3.495 -0.99 3.495 -2 4 C-1.34 2.68 -0.68 1.36 0 0 Z " fill="#000000" transform="translate(97,118)"/>
<path d="M0 0 C0.33 0 0.66 0 1 0 C1 1.98 1 3.96 1 6 C0.67 6 0.34 6 0 6 C0 4.02 0 2.04 0 0 Z " fill="#000000" transform="translate(130,47)"/>
<path d="M0 0 C0.33 0 0.66 0 1 0 C1 1.65 1 3.3 1 5 C0.67 5 0.34 5 0 5 C0 3.35 0 1.7 0 0 Z " fill="#000000" transform="translate(19,47)"/>
<path d="M0 0 C1.65 0 3.3 0 5 0 C5 0.33 5 0.66 5 1 C3.35 1 1.7 1 0 1 C0 0.67 0 0.34 0 0 Z " fill="#000000" transform="translate(95,11)"/>
<path d="M0 0 C1.65 0 3.3 0 5 0 C5 0.33 5 0.66 5 1 C3.35 1 1.7 1 0 1 C0 0.67 0 0.34 0 0 Z " fill="#000000" transform="translate(50,11)"/>
<path d="M0 0 C0.99 0.495 0.99 0.495 2 1 C1.67 1.66 1.34 2.32 1 3 C0.67 2.01 0.34 1.02 0 0 Z " fill="#000000" transform="translate(49,114)"/>
<path d="M0 0 C1 4 1 4 1 4 Z " fill="#000000" transform="translate(126,65)"/>
<path d="M0 0 C1 4 1 4 1 4 Z " fill="#000000" transform="translate(22,61)"/>
<path d="M0 0 C1 4 1 4 1 4 Z " fill="#000000" transform="translate(128,58)"/>
<path d="M0 0 C1 4 1 4 1 4 Z " fill="#000000" transform="translate(21,57)"/>
<path d="M0 0 C1 4 1 4 1 4 Z " fill="#000000" transform="translate(129,53)"/>
<path d="M0 0 C1 4 1 4 1 4 Z " fill="#000000" transform="translate(20,53)"/>
<path d="M0 0 C0.66 0.33 1.32 0.66 2 1 C1.01 1 0.02 1 -1 1 C-0.67 0.67 -0.34 0.34 0 0 Z " fill="#000000" transform="translate(21,22)"/>
<path d="M0 0 C4 1 4 1 4 1 Z " fill="#000000" transform="translate(42,13)"/>
<path d="M0 0 C4 1 4 1 4 1 Z " fill="#000000" transform="translate(101,12)"/>
<path d="M0 0 C4 1 4 1 4 1 Z " fill="#000000" transform="translate(46,12)"/>
<path d="M0 0 C3 1 3 1 3 1 Z " fill="#000000" transform="translate(74,138)"/>
<path d="" fill="#000000" transform="translate(0,0)"/>
<path d="" fill="#000000" transform="translate(0,0)"/>
<path d="" fill="#000000" transform="translate(0,0)"/>
<path d="" fill="#000000" transform="translate(0,0)"/>
<path d="" fill="#000000" transform="translate(0,0)"/>
<path d="" fill="#000000" transform="translate(0,0)"/>
<path d="" fill="#000000" transform="translate(0,0)"/>
<path d="" fill="#000000" transform="translate(0,0)"/>
<path d="" fill="#000000" transform="translate(0,0)"/>
<path d="" fill="#000000" transform="translate(0,0)"/>
<path d="M0 0 C3 1 3 1 3 1 Z " fill="#000000" transform="translate(31,17)"/>
<path d="M0 0 C3 1 3 1 3 1 Z " fill="#000000" transform="translate(114,16)"/>
<path d="M0 0 C3 1 3 1 3 1 Z " fill="#000000" transform="translate(111,15)"/>
<path d="M0 0 C3 1 3 1 3 1 Z " fill="#000000" transform="translate(36,15)"/>
<path d="M0 0 C3 1 3 1 3 1 Z " fill="#000000" transform="translate(108,14)"/>
<path d="M0 0 C3 1 3 1 3 1 Z " fill="#000000" transform="translate(39,14)"/>
<path d="M0 0 C3 1 3 1 3 1 Z " fill="#000000" transform="translate(105,13)"/>
<path d="M0 0 C2 1 2 1 2 1 Z " fill="#000000" transform="translate(72,137)"/>
<path d="M0 0 C2 1 2 1 2 1 Z " fill="#000000" transform="translate(79,135)"/>
<path d="M0 0 C2 1 2 1 2 1 Z " fill="#000000" transform="translate(67,133)"/>
<path d="" fill="#000000" transform="translate(0,0)"/>
<path d="" fill="#000000" transform="translate(0,0)"/>
<path d="" fill="#000000" transform="translate(0,0)"/>
<path d="" fill="#000000" transform="translate(0,0)"/>
<path d="" fill="#000000" transform="translate(0,0)"/>
<path d="" fill="#000000" transform="translate(0,0)"/>
<path d="" fill="#000000" transform="translate(0,0)"/>
<path d="" fill="#000000" transform="translate(0,0)"/>
<path d="" fill="#000000" transform="translate(0,0)"/>
<path d="" fill="#000000" transform="translate(0,0)"/>
<path d="" fill="#000000" transform="translate(0,0)"/>
<path d="" fill="#000000" transform="translate(0,0)"/>
<path d="" fill="#000000" transform="translate(0,0)"/>
<path d="" fill="#000000" transform="translate(0,0)"/>
<path d="" fill="#000000" transform="translate(0,0)"/>
<path d="" fill="#000000" transform="translate(0,0)"/>
<path d="" fill="#000000" transform="translate(0,0)"/>
<path d="" fill="#000000" transform="translate(0,0)"/>
<path d="" fill="#000000" transform="translate(0,0)"/>
<path d="" fill="#000000" transform="translate(0,0)"/>
<path d="" fill="#000000" transform="translate(0,0)"/>
<path d="" fill="#000000" transform="translate(0,0)"/>
<path d="" fill="#000000" transform="translate(0,0)"/>
<path d="" fill="#000000" transform="translate(0,0)"/>
<path d="" fill="#000000" transform="translate(0,0)"/>
<path d="" fill="#000000" transform="translate(0,0)"/>
<path d="M0 0 C2 1 2 1 2 1 Z " fill="#000000" transform="translate(127,22)"/>
<path d="M0 0 C2 1 2 1 2 1 Z " fill="#000000" transform="translate(125,21)"/>
<path d="M0 0 C2 1 2 1 2 1 Z " fill="#000000" transform="translate(23,21)"/>
<path d="M0 0 C2 1 2 1 2 1 Z " fill="#000000" transform="translate(123,20)"/>
<path d="M0 0 C2 1 2 1 2 1 Z " fill="#000000" transform="translate(25,20)"/>
<path d="M0 0 C2 1 2 1 2 1 Z " fill="#000000" transform="translate(121,19)"/>
<path d="M0 0 C2 1 2 1 2 1 Z " fill="#000000" transform="translate(27,19)"/>
<path d="M0 0 C2 1 2 1 2 1 Z " fill="#000000" transform="translate(119,18)"/>
<path d="M0 0 C2 1 2 1 2 1 Z " fill="#000000" transform="translate(29,18)"/>
<path d="M0 0 C2 1 2 1 2 1 Z " fill="#000000" transform="translate(117,17)"/>
<path d="M0 0 C2 1 2 1 2 1 Z " fill="#000000" transform="translate(34,16)"/>
<path d="" fill="#000000" transform="translate(0,0)"/>
<path d="" fill="#000000" transform="translate(0,0)"/>
<path d="" fill="#000000" transform="translate(0,0)"/>
<path d="" fill="#000000" transform="translate(0,0)"/>
<path d="" fill="#000000" transform="translate(0,0)"/>
<path d="" fill="#000000" transform="translate(0,0)"/>
<path d="" fill="#000000" transform="translate(0,0)"/>
<path d="" fill="#000000" transform="translate(0,0)"/>
<path d="" fill="#000000" transform="translate(0,0)"/>
<path d="" fill="#000000" transform="translate(0,0)"/>
<path d="" fill="#000000" transform="translate(0,0)"/>
<path d="" fill="#000000" transform="translate(0,0)"/>
<path d="" fill="#000000" transform="translate(0,0)"/>
<path d="" fill="#000000" transform="translate(0,0)"/>
<path d="" fill="#000000" transform="translate(0,0)"/>
<path d="" fill="#000000" transform="translate(0,0)"/>
<path d="" fill="#000000" transform="translate(0,0)"/>
<path d="" fill="#000000" transform="translate(0,0)"/>
<path d="" fill="#000000" transform="translate(0,0)"/>
<path d="" fill="#000000" transform="translate(0,0)"/>
<path d="" fill="#000000" transform="translate(0,0)"/>
<path d="" fill="#000000" transform="translate(0,0)"/>
<path d="" fill="#000000" transform="translate(0,0)"/>
<path d="" fill="#000000" transform="translate(0,0)"/>
<path d="" fill="#000000" transform="translate(0,0)"/>
<path d="" fill="#000000" transform="translate(0,0)"/>
<path d="" fill="#000000" transform="translate(0,0)"/>
<path d="" fill="#000000" transform="translate(0,0)"/>
<path d="" fill="#000000" transform="translate(0,0)"/>
<path d="" fill="#000000" transform="translate(0,0)"/>
<path d="" fill="#000000" transform="translate(0,0)"/>
<path d="" fill="#000000" transform="translate(0,0)"/>
<path d="" fill="#000000" transform="translate(0,0)"/>
<path d="" fill="#000000" transform="translate(0,0)"/>
<path d="" fill="#000000" transform="translate(0,0)"/>
<path d="" fill="#000000" transform="translate(0,0)"/>
<path d="" fill="#000000" transform="translate(0,0)"/>
<path d="" fill="#000000" transform="translate(0,0)"/>
<path d="" fill="#000000" transform="translate(0,0)"/>
<path d="" fill="#000000" transform="translate(0,0)"/>
<path d="" fill="#000000" transform="translate(0,0)"/>
<path d="" fill="#000000" transform="translate(0,0)"/>
<path d="" fill="#000000" transform="translate(0,0)"/>
<path d="" fill="#000000" transform="translate(0,0)"/>
<path d="" fill="#000000" transform="translate(0,0)"/>
<path d="" fill="#000000" transform="translate(0,0)"/>
<path d="" fill="#000000" transform="translate(0,0)"/>
<path d="" fill="#000000" transform="translate(0,0)"/>
<path d="" fill="#000000" transform="translate(0,0)"/>
<path d="" fill="#000000" transform="translate(0,0)"/>
<path d="" fill="#000000" transform="translate(0,0)"/>
<path d="" fill="#000000" transform="translate(0,0)"/>
<path d="" fill="#000000" transform="translate(0,0)"/>
<path d="" fill="#000000" transform="translate(0,0)"/>
<path d="" fill="#000000" transform="translate(0,0)"/>
</svg>
