<svg xmlns="http://www.w3.org/2000/svg" viewBox="0 0 359 384" width="359" height="384">
  <title>Kumpe double K exact trace</title>
  <desc>Exact vector trace from the approved locked PNG with transparent background.</desc>
  <path d="M 215 193 L 214 194 L 213 195 L 212 196 L 211 197 L 211 198 L 210 199 L 209 200 L 208 201 L 207 202 L 207 203 L 206 204 L 205 205 L 204 206 L 203 207 L 203 208 L 202 209 L 201 210 L 200 211 L 199 212 L 198 213 L 198 214 L 197 215 L 196 216 L 195 217 L 194 218 L 194 219 L 193 220 L 192 221 L 191 222 L 190 223 L 189 224 L 189 225 L 188 226 L 187 227 L 186 228 L 185 229 L 185 230 L 185 231 L 185 232 L 185 233 L 185 234 L 185 235 L 185 236 L 185 237 L 185 238 L 185 239 L 185 240 L 185 241 L 185 242 L 185 243 L 185 244 L 185 245 L 185 246 L 185 247 L 185 248 L 185 249 L 185 250 L 185 251 L 185 252 L 185 253 L 185 254 L 185 255 L 185 256 L 185 257 L 185 258 L 185 259 L 185 260 L 185 261 L 185 262 L 185 263 L 185 264 L 185 265 L 185 266 L 185 267 L 185 268 L 185 269 L 185 270 L 185 271 L 185 272 L 185 273 L 185 274 L 185 275 L 185 276 L 185 277 L 185 278 L 185 279 L 185 280 L 185 281 L 185 282 L 185 283 L 185 284 L 185 285 L 185 286 L 185 287 L 185 288 L 185 289 L 185 290 L 185 291 L 185 292 L 185 293 L 185 294 L 185 295 L 185 296 L 185 297 L 185 298 L 185 299 L 185 300 L 185 301 L 185 302 L 185 303 L 185 304 L 185 305 L 185 306 L 185 307 L 185 308 L 185 309 L 185 310 L 185 311 L 185 312 L 185 313 L 185 314 L 185 315 L 185 316 L 185 317 L 185 318 L 185 319 L 185 320 L 185 321 L 185 322 L 185 323 L 185 324 L 185 325 L 185 326 L 185 327 L 185 328 L 185 329 L 185 330 L 185 331 L 185 332 L 185 333 L 185 334 L 185 335 L 185 336 L 185 337 L 185 338 L 185 339 L 185 340 L 185 341 L 185 342 L 185 343 L 185 344 L 185 345 L 185 346 L 185 347 L 185 348 L 185 349 L 185 350 L 185 351 L 185 352 L 185 353 L 185 354 L 185 355 L 185 356 L 185 357 L 185 358 L 185 359 L 185 360 L 185 361 L 185 362 L 185 363 L 185 364 L 185 365 L 185 366 L 185 367 L 185 368 L 185 369 L 185 370 L 185 371 L 185 372 L 185 373 L 185 374 L 185 375 L 185 376 L 185 377 L 185 378 L 185 379 L 185 380 L 185 381 L 185 382 L 185 383 L 186 383 L 187 383 L 188 383 L 189 383 L 190 383 L 191 383 L 192 383 L 193 383 L 194 383 L 195 383 L 196 383 L 197 383 L 198 383 L 199 383 L 200 383 L 201 383 L 202 383 L 203 383 L 204 383 L 205 383 L 206 383 L 207 383 L 208 383 L 209 383 L 210 383 L 211 383 L 212 383 L 213 383 L 214 383 L 215 383 L 216 383 L 216 382 L 216 381 L 216 380 L 216 379 L 216 378 L 216 377 L 216 376 L 216 375 L 216 374 L 216 373 L 216 372 L 216 371 L 216 370 L 216 369 L 216 368 L 216 367 L 216 366 L 216 365 L 216 364 L 216 363 L 216 362 L 216 361 L 216 360 L 216 359 L 216 358 L 216 357 L 216 356 L 216 355 L 216 354 L 216 353 L 216 352 L 216 351 L 216 350 L 216 349 L 216 348 L 216 347 L 216 346 L 216 345 L 216 344 L 216 343 L 216 342 L 216 341 L 216 340 L 216 339 L 216 338 L 216 337 L 216 336 L 216 335 L 216 334 L 216 333 L 216 332 L 216 331 L 216 330 L 216 329 L 216 328 L 216 327 L 216 326 L 216 325 L 216 324 L 216 323 L 216 322 L 216 321 L 216 320 L 216 319 L 216 318 L 216 317 L 216 316 L 216 315 L 216 314 L 216 313 L 216 312 L 216 311 L 216 310 L 216 309 L 216 308 L 216 307 L 216 306 L 216 305 L 216 304 L 216 303 L 216 302 L 216 301 L 216 300 L 216 299 L 216 298 L 216 297 L 216 296 L 216 295 L 216 294 L 216 293 L 216 292 L 216 291 L 216 290 L 216 289 L 216 288 L 216 287 L 216 286 L 216 285 L 216 284 L 216 283 L 216 282 L 216 281 L 216 280 L 216 279 L 216 278 L 216 277 L 216 276 L 216 275 L 216 274 L 216 273 L 216 272 L 216 271 L 216 270 L 216 269 L 216 268 L 216 267 L 216 266 L 216 265 L 216 264 L 216 263 L 216 262 L 216 261 L 216 260 L 216 259 L 216 258 L 216 257 L 216 256 L 216 255 L 216 254 L 216 253 L 216 252 L 216 251 L 216 250 L 216 249 L 216 248 L 216 247 L 216 246 L 216 245 L 216 244 L 216 243 L 216 242 L 216 241 L 216 240 L 216 239 L 216 238 L 216 237 L 216 236 L 216 235 L 216 234 L 216 233 L 216 232 L 216 231 L 216 230 L 216 229 L 216 228 L 216 227 L 216 226 L 216 225 L 216 224 L 216 223 L 216 222 L 216 221 L 216 220 L 216 219 L 216 218 L 216 217 L 216 216 L 216 215 L 216 214 L 216 213 L 216 212 L 216 211 L 216 210 L 216 209 L 216 208 L 216 207 L 216 206 L 216 205 L 216 204 L 216 203 L 216 202 L 216 201 L 216 200 L 216 199 L 216 198 L 216 197 L 216 196 L 216 195 L 216 194 Z" fill="#7EDB28"/>
  <path d="M 142 191 L 142 192 L 142 193 L 142 194 L 142 195 L 142 196 L 142 197 L 142 198 L 142 199 L 142 200 L 142 201 L 142 202 L 142 203 L 142 204 L 142 205 L 142 206 L 142 207 L 142 208 L 142 209 L 142 210 L 142 211 L 142 212 L 142 213 L 142 214 L 142 215 L 142 216 L 142 217 L 142 218 L 142 219 L 142 220 L 142 221 L 142 222 L 142 223 L 142 224 L 142 225 L 142 226 L 142 227 L 142 228 L 142 229 L 142 230 L 142 231 L 142 232 L 142 233 L 142 234 L 142 235 L 142 236 L 142 237 L 142 238 L 142 239 L 142 240 L 142 241 L 142 242 L 142 243 L 142 244 L 142 245 L 142 246 L 142 247 L 142 248 L 142 249 L 142 250 L 142 251 L 142 252 L 142 253 L 142 254 L 142 255 L 142 256 L 142 257 L 142 258 L 142 259 L 142 260 L 142 261 L 142 262 L 142 263 L 142 264 L 142 265 L 142 266 L 142 267 L 142 268 L 142 269 L 142 270 L 142 271 L 142 272 L 142 273 L 142 274 L 142 275 L 142 276 L 142 277 L 142 278 L 142 279 L 142 280 L 142 281 L 142 282 L 142 283 L 142 284 L 142 285 L 142 286 L 142 287 L 142 288 L 142 289 L 142 290 L 142 291 L 142 292 L 142 293 L 142 294 L 142 295 L 142 296 L 142 297 L 142 298 L 142 299 L 142 300 L 142 301 L 142 302 L 142 303 L 142 304 L 142 305 L 142 306 L 142 307 L 142 308 L 142 309 L 142 310 L 142 311 L 142 312 L 142 313 L 142 314 L 142 315 L 142 316 L 142 317 L 142 318 L 142 319 L 142 320 L 142 321 L 142 322 L 142 323 L 142 324 L 142 325 L 142 326 L 142 327 L 142 328 L 142 329 L 142 330 L 142 331 L 142 332 L 142 333 L 142 334 L 142 335 L 142 336 L 142 337 L 142 338 L 142 339 L 142 340 L 142 341 L 142 342 L 142 343 L 142 344 L 142 345 L 142 346 L 142 347 L 142 348 L 142 349 L 142 350 L 142 351 L 142 352 L 142 353 L 142 354 L 142 355 L 142 356 L 142 357 L 142 358 L 142 359 L 142 360 L 142 361 L 142 362 L 142 363 L 142 364 L 142 365 L 142 366 L 142 367 L 142 368 L 142 369 L 142 370 L 142 371 L 142 372 L 142 373 L 142 374 L 142 375 L 142 376 L 142 377 L 142 378 L 142 379 L 142 380 L 142 381 L 142 382 L 142 383 L 143 383 L 144 383 L 145 383 L 146 383 L 147 383 L 148 383 L 149 383 L 150 383 L 151 383 L 152 383 L 153 383 L 154 383 L 155 383 L 156 383 L 157 383 L 158 383 L 159 383 L 160 383 L 161 383 L 162 383 L 163 383 L 164 383 L 165 383 L 166 383 L 167 383 L 168 383 L 169 383 L 170 383 L 171 383 L 172 383 L 173 382 L 173 381 L 173 380 L 173 379 L 173 378 L 173 377 L 173 376 L 173 375 L 173 374 L 173 373 L 173 372 L 173 371 L 173 370 L 173 369 L 173 368 L 173 367 L 173 366 L 173 365 L 173 364 L 173 363 L 173 362 L 173 361 L 173 360 L 173 359 L 173 358 L 173 357 L 173 356 L 173 355 L 173 354 L 173 353 L 173 352 L 173 351 L 173 350 L 173 349 L 173 348 L 173 347 L 173 346 L 173 345 L 173 344 L 173 343 L 173 342 L 173 341 L 173 340 L 173 339 L 173 338 L 173 337 L 173 336 L 173 335 L 173 334 L 173 333 L 173 332 L 173 331 L 173 330 L 173 329 L 173 328 L 173 327 L 173 326 L 173 325 L 173 324 L 173 323 L 173 322 L 173 321 L 173 320 L 173 319 L 173 318 L 173 317 L 173 316 L 173 315 L 173 314 L 173 313 L 173 312 L 173 311 L 173 310 L 173 309 L 173 308 L 173 307 L 173 306 L 173 305 L 173 304 L 173 303 L 173 302 L 173 301 L 173 300 L 173 299 L 173 298 L 173 297 L 173 296 L 173 295 L 173 294 L 173 293 L 173 292 L 173 291 L 173 290 L 173 289 L 173 288 L 173 287 L 173 286 L 173 285 L 173 284 L 173 283 L 173 282 L 173 281 L 173 280 L 173 279 L 173 278 L 173 277 L 173 276 L 173 275 L 173 274 L 173 273 L 173 272 L 173 271 L 173 270 L 173 269 L 173 268 L 173 267 L 173 266 L 173 265 L 173 264 L 173 263 L 173 262 L 173 261 L 173 260 L 173 259 L 173 258 L 173 257 L 173 256 L 173 255 L 173 254 L 173 253 L 173 252 L 173 251 L 173 250 L 173 249 L 173 248 L 173 247 L 173 246 L 173 245 L 173 244 L 173 243 L 173 242 L 173 241 L 173 240 L 173 239 L 173 238 L 173 237 L 173 236 L 173 235 L 173 234 L 173 233 L 173 232 L 173 231 L 172 230 L 171 229 L 170 228 L 170 227 L 169 226 L 168 225 L 167 224 L 167 223 L 166 222 L 165 221 L 164 220 L 164 219 L 163 218 L 162 217 L 161 216 L 160 215 L 160 214 L 159 213 L 158 212 L 157 211 L 157 210 L 156 209 L 155 208 L 154 207 L 154 206 L 153 205 L 152 204 L 151 203 L 151 202 L 150 201 L 149 200 L 148 199 L 148 198 L 147 197 L 146 196 L 145 195 L 144 194 L 144 193 L 143 192 Z" fill="#7EDB28"/>
  <path d="M 187 1 L 186 2 L 185 2 L 185 3 L 185 4 L 185 5 L 185 6 L 185 7 L 185 8 L 185 9 L 185 10 L 185 11 L 185 12 L 185 13 L 185 14 L 185 15 L 185 16 L 185 17 L 185 18 L 185 19 L 185 20 L 185 21 L 185 22 L 185 23 L 185 24 L 185 25 L 185 26 L 185 27 L 185 28 L 185 29 L 185 30 L 185 31 L 185 32 L 185 33 L 185 34 L 185 35 L 185 36 L 185 37 L 185 38 L 185 39 L 185 40 L 185 41 L 185 42 L 185 43 L 185 44 L 185 45 L 185 46 L 185 47 L 185 48 L 185 49 L 185 50 L 185 51 L 185 52 L 185 53 L 185 54 L 185 55 L 185 56 L 185 57 L 185 58 L 185 59 L 185 60 L 185 61 L 185 62 L 185 63 L 185 64 L 185 65 L 185 66 L 185 67 L 185 68 L 185 69 L 185 70 L 185 71 L 185 72 L 185 73 L 185 74 L 185 75 L 185 76 L 185 77 L 185 78 L 185 79 L 185 80 L 185 81 L 185 82 L 185 83 L 185 84 L 185 85 L 185 86 L 185 87 L 185 88 L 185 89 L 185 90 L 185 91 L 185 92 L 185 93 L 185 94 L 185 95 L 185 96 L 185 97 L 185 98 L 185 99 L 185 100 L 185 101 L 185 102 L 185 103 L 185 104 L 185 105 L 185 106 L 185 107 L 185 108 L 185 109 L 185 110 L 185 111 L 185 112 L 185 113 L 185 114 L 185 115 L 185 116 L 185 117 L 185 118 L 185 119 L 185 120 L 185 121 L 185 122 L 185 123 L 185 124 L 185 125 L 185 126 L 185 127 L 185 128 L 185 129 L 185 130 L 185 131 L 185 132 L 185 133 L 185 134 L 185 135 L 185 136 L 185 137 L 185 138 L 185 139 L 185 140 L 185 141 L 185 142 L 185 143 L 185 144 L 185 145 L 185 146 L 185 147 L 185 148 L 185 149 L 185 150 L 185 151 L 185 152 L 185 153 L 185 154 L 185 155 L 185 156 L 185 157 L 185 158 L 185 159 L 185 160 L 185 161 L 185 162 L 185 163 L 185 164 L 186 163 L 187 162 L 188 161 L 188 160 L 189 159 L 190 158 L 191 157 L 191 156 L 192 155 L 193 154 L 194 153 L 195 152 L 195 151 L 196 150 L 197 149 L 198 148 L 198 147 L 199 146 L 200 145 L 201 144 L 202 143 L 202 142 L 203 141 L 204 140 L 205 139 L 206 138 L 206 137 L 207 136 L 208 135 L 209 134 L 209 133 L 210 132 L 211 131 L 212 130 L 213 129 L 213 128 L 214 127 L 215 126 L 216 125 L 216 124 L 216 123 L 216 122 L 216 121 L 216 120 L 216 119 L 216 118 L 216 117 L 216 116 L 216 115 L 216 114 L 216 113 L 216 112 L 216 111 L 216 110 L 216 109 L 216 108 L 216 107 L 216 106 L 216 105 L 216 104 L 216 103 L 216 102 L 216 101 L 216 100 L 216 99 L 216 98 L 216 97 L 216 96 L 216 95 L 216 94 L 216 93 L 216 92 L 216 91 L 216 90 L 216 89 L 216 88 L 216 87 L 216 86 L 216 85 L 216 84 L 216 83 L 216 82 L 216 81 L 216 80 L 216 79 L 216 78 L 216 77 L 216 76 L 216 75 L 216 74 L 216 73 L 216 72 L 216 71 L 216 70 L 216 69 L 216 68 L 216 67 L 216 66 L 216 65 L 216 64 L 216 63 L 216 62 L 216 61 L 216 60 L 216 59 L 216 58 L 216 57 L 216 56 L 216 55 L 216 54 L 216 53 L 216 52 L 216 51 L 216 50 L 216 49 L 216 48 L 216 47 L 216 46 L 216 45 L 216 44 L 216 43 L 216 42 L 216 41 L 216 40 L 216 39 L 216 38 L 216 37 L 216 36 L 216 35 L 216 34 L 216 33 L 216 32 L 216 31 L 216 30 L 216 29 L 216 28 L 216 27 L 216 26 L 216 25 L 216 24 L 216 23 L 216 22 L 216 21 L 216 20 L 216 19 L 216 18 L 216 17 L 216 16 L 216 15 L 216 14 L 216 13 L 216 12 L 216 11 L 216 10 L 216 9 L 216 8 L 216 7 L 216 6 L 216 5 L 216 4 L 216 3 L 216 2 L 216 1 L 215 1 L 214 1 L 213 1 L 212 1 L 211 1 L 210 1 L 209 1 L 208 1 L 207 1 L 206 1 L 205 1 L 204 1 L 203 1 L 202 1 L 201 1 L 200 1 L 199 1 L 198 1 L 197 1 L 196 1 L 195 1 L 194 1 L 193 1 L 192 1 L 191 1 L 190 1 L 189 1 L 188 1 Z" fill="#7EDB28"/>
  <path d="M 142 1 L 142 2 L 142 3 L 142 4 L 142 5 L 142 6 L 142 7 L 142 8 L 142 9 L 142 10 L 142 11 L 142 12 L 142 13 L 142 14 L 142 15 L 142 16 L 142 17 L 142 18 L 142 19 L 142 20 L 142 21 L 142 22 L 142 23 L 142 24 L 142 25 L 142 26 L 142 27 L 142 28 L 142 29 L 142 30 L 142 31 L 142 32 L 142 33 L 142 34 L 142 35 L 142 36 L 142 37 L 142 38 L 142 39 L 142 40 L 142 41 L 142 42 L 142 43 L 142 44 L 142 45 L 142 46 L 142 47 L 142 48 L 142 49 L 142 50 L 142 51 L 142 52 L 142 53 L 142 54 L 142 55 L 142 56 L 142 57 L 142 58 L 142 59 L 142 60 L 142 61 L 142 62 L 142 63 L 142 64 L 142 65 L 142 66 L 142 67 L 142 68 L 142 69 L 142 70 L 142 71 L 142 72 L 142 73 L 142 74 L 142 75 L 142 76 L 142 77 L 142 78 L 142 79 L 142 80 L 142 81 L 142 82 L 142 83 L 142 84 L 142 85 L 142 86 L 142 87 L 142 88 L 142 89 L 142 90 L 142 91 L 142 92 L 142 93 L 142 94 L 142 95 L 142 96 L 142 97 L 142 98 L 142 99 L 142 100 L 142 101 L 142 102 L 142 103 L 142 104 L 142 105 L 142 106 L 142 107 L 142 108 L 142 109 L 142 110 L 142 111 L 142 112 L 142 113 L 142 114 L 142 115 L 142 116 L 142 117 L 142 118 L 142 119 L 142 120 L 142 121 L 142 122 L 142 123 L 142 124 L 142 125 L 143 126 L 144 127 L 145 128 L 145 129 L 146 130 L 147 131 L 148 132 L 149 133 L 149 134 L 150 135 L 151 136 L 152 137 L 152 138 L 153 139 L 154 140 L 155 141 L 156 142 L 156 143 L 157 144 L 158 145 L 159 146 L 160 147 L 160 148 L 161 149 L 162 150 L 163 151 L 163 152 L 164 153 L 165 154 L 166 155 L 167 156 L 167 157 L 168 158 L 169 159 L 170 160 L 170 161 L 171 162 L 172 163 L 173 164 L 173 163 L 173 162 L 173 161 L 173 160 L 173 159 L 173 158 L 173 157 L 173 156 L 173 155 L 173 154 L 173 153 L 173 152 L 173 151 L 173 150 L 173 149 L 173 148 L 173 147 L 173 146 L 173 145 L 173 144 L 173 143 L 173 142 L 173 141 L 173 140 L 173 139 L 173 138 L 173 137 L 173 136 L 173 135 L 173 134 L 173 133 L 173 132 L 173 131 L 173 130 L 173 129 L 173 128 L 173 127 L 173 126 L 173 125 L 173 124 L 173 123 L 173 122 L 173 121 L 173 120 L 173 119 L 173 118 L 173 117 L 173 116 L 173 115 L 173 114 L 173 113 L 173 112 L 173 111 L 173 110 L 173 109 L 173 108 L 173 107 L 173 106 L 173 105 L 173 104 L 173 103 L 173 102 L 173 101 L 173 100 L 173 99 L 173 98 L 173 97 L 173 96 L 173 95 L 173 94 L 173 93 L 173 92 L 173 91 L 173 90 L 173 89 L 173 88 L 173 87 L 173 86 L 173 85 L 173 84 L 173 83 L 173 82 L 173 81 L 173 80 L 173 79 L 173 78 L 173 77 L 173 76 L 173 75 L 173 74 L 173 73 L 173 72 L 173 71 L 173 70 L 173 69 L 173 68 L 173 67 L 173 66 L 173 65 L 173 64 L 173 63 L 173 62 L 173 61 L 173 60 L 173 59 L 173 58 L 173 57 L 173 56 L 173 55 L 173 54 L 173 53 L 173 52 L 173 51 L 173 50 L 173 49 L 173 48 L 173 47 L 173 46 L 173 45 L 173 44 L 173 43 L 173 42 L 173 41 L 173 40 L 173 39 L 173 38 L 173 37 L 173 36 L 173 35 L 173 34 L 173 33 L 173 32 L 173 31 L 173 30 L 173 29 L 173 28 L 173 27 L 173 26 L 173 25 L 173 24 L 173 23 L 173 22 L 173 21 L 173 20 L 173 19 L 173 18 L 173 17 L 173 16 L 173 15 L 173 14 L 173 13 L 173 12 L 173 11 L 173 10 L 173 9 L 173 8 L 173 7 L 173 6 L 173 5 L 173 4 L 173 3 L 172 2 L 172 1 L 171 1 L 170 1 L 169 1 L 168 1 L 167 1 L 166 1 L 165 1 L 164 1 L 163 1 L 162 1 L 161 1 L 160 1 L 159 1 L 158 1 L 157 1 L 156 1 L 155 1 L 154 1 L 153 1 L 152 1 L 151 1 L 150 1 L 149 1 L 148 1 L 147 1 L 146 1 L 145 1 L 144 1 L 143 1 Z" fill="#7EDB28"/>
  <path d="M 8 0 L 8 1 L 9 2 L 10 3 L 10 4 L 11 5 L 12 6 L 13 7 L 13 8 L 14 9 L 15 10 L 16 11 L 16 12 L 17 13 L 18 14 L 18 15 L 19 16 L 20 17 L 21 18 L 21 19 L 22 20 L 23 21 L 24 22 L 24 23 L 25 24 L 26 25 L 26 26 L 27 27 L 28 28 L 29 29 L 29 30 L 30 31 L 31 32 L 32 33 L 32 34 L 33 35 L 34 36 L 34 37 L 35 38 L 36 39 L 37 40 L 37 41 L 38 42 L 39 43 L 40 44 L 40 45 L 41 46 L 42 47 L 42 48 L 43 49 L 44 50 L 45 51 L 45 52 L 46 53 L 47 54 L 48 55 L 48 56 L 49 57 L 50 58 L 50 59 L 51 60 L 52 61 L 53 62 L 53 63 L 54 64 L 55 65 L 56 66 L 56 67 L 57 68 L 58 69 L 58 70 L 59 71 L 60 72 L 61 73 L 61 74 L 62 75 L 63 76 L 64 77 L 64 78 L 65 79 L 66 80 L 66 81 L 67 82 L 68 83 L 69 84 L 69 85 L 70 86 L 71 87 L 72 88 L 72 89 L 73 90 L 74 91 L 74 92 L 75 93 L 76 94 L 77 95 L 77 96 L 78 97 L 79 98 L 80 99 L 80 100 L 81 101 L 82 102 L 82 103 L 83 104 L 84 105 L 85 106 L 85 107 L 86 108 L 87 109 L 88 110 L 88 111 L 89 112 L 90 113 L 90 114 L 91 115 L 92 116 L 93 117 L 93 118 L 94 119 L 95 120 L 96 121 L 96 122 L 97 123 L 98 124 L 98 125 L 99 126 L 100 127 L 101 128 L 101 129 L 102 130 L 103 131 L 104 132 L 104 133 L 105 134 L 106 135 L 106 136 L 107 137 L 108 138 L 109 139 L 109 140 L 110 141 L 111 142 L 112 143 L 112 144 L 113 145 L 114 146 L 114 147 L 115 148 L 116 149 L 117 150 L 117 151 L 118 152 L 119 153 L 119 154 L 119 155 L 118 156 L 117 157 L 117 158 L 116 159 L 116 160 L 115 161 L 115 162 L 114 163 L 114 164 L 113 165 L 113 166 L 112 167 L 112 168 L 111 169 L 111 170 L 110 171 L 110 172 L 109 173 L 109 174 L 108 175 L 108 176 L 107 177 L 107 178 L 106 179 L 105 180 L 105 181 L 104 182 L 104 183 L 103 184 L 103 185 L 102 186 L 102 187 L 101 188 L 101 189 L 100 190 L 100 191 L 99 192 L 99 193 L 98 194 L 98 195 L 97 196 L 97 197 L 96 198 L 96 199 L 95 200 L 95 201 L 94 202 L 93 203 L 93 204 L 92 205 L 92 206 L 91 207 L 91 208 L 90 209 L 90 210 L 89 211 L 89 212 L 88 213 L 88 214 L 87 215 L 87 216 L 86 217 L 86 218 L 85 219 L 85 220 L 84 221 L 84 222 L 83 223 L 83 224 L 82 225 L 81 226 L 81 227 L 80 228 L 80 229 L 79 230 L 79 231 L 78 232 L 78 233 L 77 234 L 77 235 L 76 236 L 76 237 L 75 238 L 75 239 L 74 240 L 74 241 L 73 242 L 73 243 L 72 244 L 72 245 L 71 246 L 71 247 L 70 248 L 69 249 L 69 250 L 68 251 L 68 252 L 67 253 L 67 254 L 66 255 L 66 256 L 65 257 L 65 258 L 64 259 L 64 260 L 63 261 L 63 262 L 62 263 L 62 264 L 61 265 L 61 266 L 60 267 L 60 268 L 59 269 L 59 270 L 58 271 L 57 272 L 57 273 L 56 274 L 56 275 L 55 276 L 55 277 L 54 278 L 54 279 L 53 280 L 53 281 L 52 282 L 52 283 L 51 284 L 51 285 L 50 286 L 50 287 L 49 288 L 49 289 L 48 290 L 48 291 L 47 292 L 47 293 L 46 294 L 45 295 L 45 296 L 44 297 L 44 298 L 43 299 L 43 300 L 42 301 L 42 302 L 41 303 L 41 304 L 40 305 L 40 306 L 39 307 L 39 308 L 38 309 L 38 310 L 37 311 L 37 312 L 36 313 L 36 314 L 35 315 L 35 316 L 34 317 L 33 318 L 33 319 L 32 320 L 32 321 L 31 322 L 31 323 L 30 324 L 30 325 L 29 326 L 29 327 L 28 328 L 28 329 L 27 330 L 27 331 L 26 332 L 26 333 L 25 334 L 25 335 L 24 336 L 24 337 L 23 338 L 23 339 L 22 340 L 21 341 L 21 342 L 20 343 L 20 344 L 19 345 L 19 346 L 18 347 L 18 348 L 17 349 L 17 350 L 16 351 L 16 352 L 15 353 L 15 354 L 14 355 L 14 356 L 13 357 L 13 358 L 12 359 L 12 360 L 11 361 L 11 362 L 10 363 L 9 364 L 9 365 L 8 366 L 8 367 L 7 368 L 7 369 L 6 370 L 6 371 L 5 372 L 5 373 L 4 374 L 4 375 L 3 376 L 3 377 L 2 378 L 2 379 L 1 380 L 1 381 L 0 382 L 0 383 L 1 383 L 2 383 L 3 383 L 4 383 L 5 383 L 6 383 L 7 383 L 8 383 L 9 383 L 10 383 L 11 383 L 12 383 L 13 383 L 14 383 L 15 383 L 16 383 L 17 383 L 18 383 L 19 383 L 20 383 L 21 383 L 22 383 L 23 383 L 24 383 L 25 383 L 26 383 L 27 383 L 28 383 L 29 383 L 30 383 L 31 383 L 32 383 L 33 383 L 34 383 L 35 383 L 36 383 L 36 382 L 37 381 L 38 380 L 38 379 L 39 378 L 39 377 L 40 376 L 40 375 L 41 374 L 41 373 L 42 372 L 42 371 L 43 370 L 43 369 L 44 368 L 44 367 L 45 366 L 45 365 L 46 364 L 46 363 L 47 362 L 47 361 L 48 360 L 48 359 L 49 358 L 49 357 L 50 356 L 50 355 L 51 354 L 51 353 L 52 352 L 53 351 L 53 350 L 54 349 L 54 348 L 55 347 L 55 346 L 56 345 L 56 344 L 57 343 L 57 342 L 58 341 L 58 340 L 59 339 L 59 338 L 60 337 L 60 336 L 61 335 L 61 334 L 62 333 L 62 332 L 63 331 L 63 330 L 64 329 L 64 328 L 65 327 L 65 326 L 66 325 L 66 324 L 67 323 L 68 322 L 68 321 L 69 320 L 69 319 L 70 318 L 70 317 L 71 316 L 71 315 L 72 314 L 72 313 L 73 312 L 73 311 L 74 310 L 74 309 L 75 308 L 75 307 L 76 306 L 76 305 L 77 304 L 77 303 L 78 302 L 78 301 L 79 300 L 79 299 L 80 298 L 80 297 L 81 296 L 81 295 L 82 294 L 83 293 L 83 292 L 84 291 L 84 290 L 85 289 L 85 288 L 86 287 L 86 286 L 87 285 L 87 284 L 88 283 L 88 282 L 89 281 L 89 280 L 90 279 L 90 278 L 91 277 L 91 276 L 92 275 L 92 274 L 93 273 L 93 272 L 94 271 L 94 270 L 95 269 L 95 268 L 96 267 L 96 266 L 97 265 L 98 264 L 98 263 L 99 262 L 99 261 L 100 260 L 100 259 L 101 258 L 101 257 L 102 256 L 102 255 L 103 254 L 103 253 L 104 252 L 104 251 L 105 250 L 105 249 L 106 248 L 106 247 L 107 246 L 107 245 L 108 244 L 108 243 L 109 242 L 109 241 L 110 240 L 110 239 L 111 238 L 111 237 L 112 236 L 113 235 L 113 234 L 114 233 L 114 232 L 115 231 L 115 230 L 116 229 L 116 228 L 117 227 L 117 226 L 118 225 L 118 224 L 119 223 L 119 222 L 120 221 L 120 220 L 121 219 L 121 218 L 122 217 L 122 216 L 123 215 L 123 214 L 124 213 L 124 212 L 125 211 L 125 210 L 126 209 L 126 208 L 127 207 L 128 206 L 128 205 L 129 204 L 129 203 L 130 202 L 130 201 L 131 200 L 131 199 L 132 198 L 132 197 L 133 196 L 133 195 L 134 194 L 134 193 L 135 192 L 135 191 L 136 190 L 136 189 L 137 188 L 137 187 L 138 186 L 138 185 L 139 184 L 139 183 L 140 182 L 141 181 L 142 182 L 143 183 L 144 183 L 145 184 L 146 185 L 147 185 L 148 186 L 148 187 L 149 188 L 150 189 L 150 190 L 151 191 L 152 192 L 153 193 L 153 194 L 154 195 L 155 196 L 156 197 L 156 198 L 157 199 L 158 200 L 159 201 L 159 202 L 160 203 L 161 204 L 161 205 L 162 206 L 163 207 L 164 208 L 164 209 L 165 210 L 166 211 L 167 212 L 167 213 L 168 214 L 169 215 L 170 216 L 170 217 L 171 218 L 172 219 L 172 220 L 173 221 L 174 222 L 175 223 L 175 224 L 176 225 L 177 226 L 178 226 L 179 226 L 180 225 L 181 225 L 182 224 L 183 223 L 184 222 L 185 221 L 185 220 L 186 219 L 187 218 L 188 217 L 188 216 L 189 215 L 190 214 L 191 213 L 191 212 L 192 211 L 193 210 L 194 209 L 194 208 L 195 207 L 196 206 L 196 205 L 197 204 L 198 203 L 199 202 L 199 201 L 200 200 L 201 199 L 202 198 L 202 197 L 203 196 L 204 195 L 205 194 L 205 193 L 206 192 L 207 191 L 208 190 L 208 189 L 209 188 L 210 187 L 210 186 L 211 185 L 212 185 L 213 184 L 214 183 L 215 183 L 216 182 L 217 181 L 218 182 L 219 183 L 219 184 L 220 185 L 220 186 L 221 187 L 221 188 L 222 189 L 222 190 L 223 191 L 223 192 L 224 193 L 224 194 L 225 195 L 225 196 L 226 197 L 226 198 L 227 199 L 227 200 L 228 201 L 228 202 L 229 203 L 229 204 L 230 205 L 230 206 L 231 207 L 231 208 L 232 209 L 232 210 L 233 211 L 233 212 L 234 213 L 234 214 L 235 215 L 235 216 L 236 217 L 237 218 L 237 219 L 238 220 L 238 221 L 239 222 L 239 223 L 240 224 L 240 225 L 241 226 L 241 227 L 242 228 L 242 229 L 243 230 L 243 231 L 244 232 L 244 233 L 245 234 L 245 235 L 246 236 L 246 237 L 247 238 L 247 239 L 248 240 L 248 241 L 249 242 L 249 243 L 250 244 L 250 245 L 251 246 L 251 247 L 252 248 L 252 249 L 253 250 L 253 251 L 254 252 L 254 253 L 255 254 L 255 255 L 256 256 L 256 257 L 257 258 L 258 259 L 258 260 L 259 261 L 259 262 L 260 263 L 260 264 L 261 265 L 261 266 L 262 267 L 262 268 L 263 269 L 263 270 L 264 271 L 264 272 L 265 273 L 265 274 L 266 275 L 266 276 L 267 277 L 267 278 L 268 279 L 268 280 L 269 281 L 269 282 L 270 283 L 270 284 L 271 285 L 271 286 L 272 287 L 272 288 L 273 289 L 273 290 L 274 291 L 274 292 L 275 293 L 275 294 L 276 295 L 276 296 L 277 297 L 277 298 L 278 299 L 279 300 L 279 301 L 280 302 L 280 303 L 281 304 L 281 305 L 282 306 L 282 307 L 283 308 L 283 309 L 284 310 L 284 311 L 285 312 L 285 313 L 286 314 L 286 315 L 287 316 L 287 317 L 288 318 L 288 319 L 289 320 L 289 321 L 290 322 L 290 323 L 291 324 L 291 325 L 292 326 L 292 327 L 293 328 L 293 329 L 294 330 L 294 331 L 295 332 L 295 333 L 296 334 L 296 335 L 297 336 L 297 337 L 298 338 L 299 339 L 299 340 L 300 341 L 300 342 L 301 343 L 301 344 L 302 345 L 302 346 L 303 347 L 303 348 L 304 349 L 304 350 L 305 351 L 305 352 L 306 353 L 306 354 L 307 355 L 307 356 L 308 357 L 308 358 L 309 359 L 309 360 L 310 361 L 310 362 L 311 363 L 311 364 L 312 365 L 312 366 L 313 367 L 313 368 L 314 369 L 314 370 L 315 371 L 315 372 L 316 373 L 316 374 L 317 375 L 317 376 L 318 377 L 318 378 L 319 379 L 320 380 L 320 381 L 321 382 L 321 383 L 322 383 L 323 383 L 324 383 L 325 383 L 326 383 L 327 383 L 328 383 L 329 383 L 330 383 L 331 383 L 332 383 L 333 383 L 334 383 L 335 383 L 336 383 L 337 383 L 338 383 L 339 383 L 340 383 L 341 383 L 342 383 L 343 383 L 344 383 L 345 383 L 346 383 L 347 383 L 348 383 L 349 383 L 350 383 L 351 383 L 352 383 L 353 383 L 354 383 L 355 383 L 356 383 L 357 383 L 358 383 L 358 382 L 357 381 L 357 380 L 356 379 L 356 378 L 355 377 L 355 376 L 354 375 L 354 374 L 353 373 L 353 372 L 352 371 L 352 370 L 351 369 L 351 368 L 350 367 L 350 366 L 349 365 L 348 364 L 348 363 L 347 362 L 347 361 L 346 360 L 346 359 L 345 358 L 345 357 L 344 356 L 344 355 L 343 354 L 343 353 L 342 352 L 342 351 L 341 350 L 341 349 L 340 348 L 340 347 L 339 346 L 338 345 L 338 344 L 337 343 L 337 342 L 336 341 L 336 340 L 335 339 L 335 338 L 334 337 L 334 336 L 333 335 L 333 334 L 332 333 L 332 332 L 331 331 L 331 330 L 330 329 L 330 328 L 329 327 L 328 326 L 328 325 L 327 324 L 327 323 L 326 322 L 326 321 L 325 320 L 325 319 L 324 318 L 324 317 L 323 316 L 323 315 L 322 314 L 322 313 L 321 312 L 321 311 L 320 310 L 320 309 L 319 308 L 318 307 L 318 306 L 317 305 L 317 304 L 316 303 L 316 302 L 315 301 L 315 300 L 314 299 L 314 298 L 313 297 L 313 296 L 312 295 L 312 294 L 311 293 L 311 292 L 310 291 L 310 290 L 309 289 L 308 288 L 308 287 L 307 286 L 307 285 L 306 284 L 306 283 L 305 282 L 305 281 L 304 280 L 304 279 L 303 278 L 303 277 L 302 276 L 302 275 L 301 274 L 301 273 L 300 272 L 300 271 L 299 270 L 298 269 L 298 268 L 297 267 L 297 266 L 296 265 L 296 264 L 295 263 L 295 262 L 294 261 L 294 260 L 293 259 L 293 258 L 292 257 L 292 256 L 291 255 L 291 254 L 290 253 L 290 252 L 289 251 L 288 250 L 288 249 L 287 248 L 287 247 L 286 246 L 286 245 L 285 244 L 285 243 L 284 242 L 284 241 L 283 240 L 283 239 L 282 238 L 282 237 L 281 236 L 281 235 L 280 234 L 280 233 L 279 232 L 278 231 L 278 230 L 277 229 L 277 228 L 276 227 L 276 226 L 275 225 L 275 224 L 274 223 L 274 222 L 273 221 L 273 220 L 272 219 L 272 218 L 271 217 L 271 216 L 270 215 L 270 214 L 269 213 L 268 212 L 268 211 L 267 210 L 267 209 L 266 208 L 266 207 L 265 206 L 265 205 L 264 204 L 264 203 L 263 202 L 263 201 L 262 200 L 262 199 L 261 198 L 261 197 L 260 196 L 260 195 L 259 194 L 258 193 L 258 192 L 257 191 L 257 190 L 256 189 L 256 188 L 255 187 L 255 186 L 254 185 L 254 184 L 253 183 L 253 182 L 252 181 L 252 180 L 251 179 L 251 178 L 250 177 L 250 176 L 249 175 L 248 174 L 248 173 L 247 172 L 247 171 L 246 170 L 246 169 L 245 168 L 245 167 L 244 166 L 244 165 L 243 164 L 243 163 L 242 162 L 242 161 L 241 160 L 241 159 L 240 158 L 240 157 L 239 156 L 238 155 L 238 154 L 238 153 L 238 152 L 239 151 L 240 150 L 241 149 L 241 148 L 242 147 L 243 146 L 244 145 L 244 144 L 245 143 L 246 142 L 247 141 L 247 140 L 248 139 L 249 138 L 250 137 L 250 136 L 251 135 L 252 134 L 252 133 L 253 132 L 254 131 L 255 130 L 255 129 L 256 128 L 257 127 L 258 126 L 258 125 L 259 124 L 260 123 L 261 122 L 261 121 L 262 120 L 263 119 L 264 118 L 264 117 L 265 116 L 266 115 L 266 114 L 267 113 L 268 112 L 269 111 L 269 110 L 270 109 L 271 108 L 272 107 L 272 106 L 273 105 L 274 104 L 275 103 L 275 102 L 276 101 L 277 100 L 278 99 L 278 98 L 279 97 L 280 96 L 280 95 L 281 94 L 282 93 L 283 92 L 283 91 L 284 90 L 285 89 L 286 88 L 286 87 L 287 86 L 288 85 L 289 84 L 289 83 L 290 82 L 291 81 L 292 80 L 292 79 L 293 78 L 294 77 L 294 76 L 295 75 L 296 74 L 297 73 L 297 72 L 298 71 L 299 70 L 300 69 L 300 68 L 301 67 L 302 66 L 303 65 L 303 64 L 304 63 L 305 62 L 306 61 L 306 60 L 307 59 L 308 58 L 308 57 L 309 56 L 310 55 L 311 54 L 311 53 L 312 52 L 313 51 L 314 50 L 314 49 L 315 48 L 316 47 L 317 46 L 317 45 L 318 44 L 319 43 L 320 42 L 320 41 L 321 40 L 322 39 L 322 38 L 323 37 L 324 36 L 325 35 L 325 34 L 326 33 L 327 32 L 328 31 L 328 30 L 329 29 L 330 28 L 331 27 L 331 26 L 332 25 L 333 24 L 334 23 L 334 22 L 335 21 L 336 20 L 336 19 L 337 18 L 338 17 L 339 16 L 339 15 L 340 14 L 341 13 L 342 12 L 342 11 L 343 10 L 344 9 L 345 8 L 345 7 L 346 6 L 347 5 L 348 4 L 348 3 L 349 2 L 350 1 L 350 0 L 349 0 L 348 0 L 347 0 L 346 0 L 345 0 L 344 0 L 343 0 L 342 0 L 341 0 L 340 0 L 339 0 L 338 0 L 337 0 L 336 0 L 335 0 L 334 0 L 333 0 L 332 0 L 331 1 L 330 1 L 329 1 L 328 1 L 327 1 L 326 1 L 325 1 L 324 1 L 323 1 L 322 1 L 321 1 L 320 1 L 319 1 L 318 1 L 317 1 L 316 1 L 315 1 L 314 1 L 313 1 L 312 2 L 311 2 L 310 3 L 309 4 L 309 5 L 308 6 L 307 7 L 306 8 L 306 9 L 305 10 L 304 11 L 304 12 L 303 13 L 302 14 L 301 15 L 301 16 L 300 17 L 299 18 L 299 19 L 298 20 L 297 21 L 296 22 L 296 23 L 295 24 L 294 25 L 293 26 L 293 27 L 292 28 L 291 29 L 291 30 L 290 31 L 289 32 L 288 33 L 288 34 L 287 35 L 286 36 L 286 37 L 285 38 L 284 39 L 283 40 L 283 41 L 282 42 L 281 43 L 280 44 L 280 45 L 279 46 L 278 47 L 278 48 L 277 49 L 276 50 L 275 51 L 275 52 L 274 53 L 273 54 L 272 55 L 272 56 L 271 57 L 270 58 L 270 59 L 269 60 L 268 61 L 267 62 L 267 63 L 266 64 L 265 65 L 265 66 L 264 67 L 263 68 L 262 69 L 262 70 L 261 71 L 260 72 L 259 73 L 259 74 L 258 75 L 257 76 L 257 77 L 256 78 L 255 79 L 254 80 L 254 81 L 253 82 L 252 83 L 251 84 L 251 85 L 250 86 L 249 87 L 249 88 L 248 89 L 247 90 L 246 91 L 246 92 L 245 93 L 244 94 L 244 95 L 243 96 L 242 97 L 241 98 L 241 99 L 240 100 L 239 101 L 238 102 L 238 103 L 237 104 L 236 105 L 236 106 L 235 107 L 234 108 L 233 109 L 233 110 L 232 111 L 231 112 L 230 113 L 230 114 L 229 115 L 228 116 L 228 117 L 227 118 L 226 119 L 225 120 L 225 121 L 224 122 L 223 123 L 223 124 L 222 125 L 221 126 L 220 127 L 220 128 L 219 129 L 218 130 L 217 131 L 217 132 L 216 133 L 215 134 L 215 135 L 214 136 L 213 137 L 212 138 L 212 139 L 211 140 L 210 141 L 210 142 L 209 143 L 208 144 L 207 145 L 207 146 L 206 147 L 205 148 L 204 149 L 204 150 L 203 151 L 202 152 L 202 153 L 201 154 L 200 155 L 199 156 L 199 157 L 198 158 L 197 159 L 196 160 L 196 161 L 195 162 L 194 163 L 194 164 L 193 165 L 192 166 L 191 167 L 191 168 L 190 169 L 189 170 L 189 171 L 188 172 L 187 173 L 186 174 L 186 175 L 185 176 L 184 177 L 183 178 L 183 179 L 182 180 L 181 181 L 180 182 L 179 182 L 178 181 L 177 181 L 176 181 L 175 180 L 175 179 L 174 178 L 173 177 L 173 176 L 172 175 L 171 174 L 170 173 L 170 172 L 169 171 L 168 170 L 168 169 L 167 168 L 166 167 L 165 166 L 165 165 L 164 164 L 163 163 L 162 162 L 162 161 L 161 160 L 160 159 L 160 158 L 159 157 L 158 156 L 157 155 L 157 154 L 156 153 L 155 152 L 155 151 L 154 150 L 153 149 L 152 148 L 152 147 L 151 146 L 150 145 L 150 144 L 149 143 L 148 142 L 147 141 L 147 140 L 146 139 L 145 138 L 144 137 L 144 136 L 143 135 L 142 134 L 142 133 L 141 132 L 140 131 L 139 130 L 139 129 L 138 128 L 137 127 L 137 126 L 136 125 L 135 124 L 134 123 L 134 122 L 133 121 L 132 120 L 131 119 L 131 118 L 130 117 L 129 116 L 129 115 L 128 114 L 127 113 L 126 112 L 126 111 L 125 110 L 124 109 L 124 108 L 123 107 L 122 106 L 121 105 L 121 104 L 120 103 L 119 102 L 119 101 L 118 100 L 117 99 L 116 98 L 116 97 L 115 96 L 114 95 L 113 94 L 113 93 L 112 92 L 111 91 L 111 90 L 110 89 L 109 88 L 108 87 L 108 86 L 107 85 L 106 84 L 106 83 L 105 82 L 104 81 L 103 80 L 103 79 L 102 78 L 101 77 L 101 76 L 100 75 L 99 74 L 98 73 L 98 72 L 97 71 L 96 70 L 95 69 L 95 68 L 94 67 L 93 66 L 93 65 L 92 64 L 91 63 L 90 62 L 90 61 L 89 60 L 88 59 L 88 58 L 87 57 L 86 56 L 85 55 L 85 54 L 84 53 L 83 52 L 82 51 L 82 50 L 81 49 L 80 48 L 80 47 L 79 46 L 78 45 L 77 44 L 77 43 L 76 42 L 75 41 L 75 40 L 74 39 L 73 38 L 72 37 L 72 36 L 71 35 L 70 34 L 70 33 L 69 32 L 68 31 L 67 30 L 67 29 L 66 28 L 65 27 L 64 26 L 64 25 L 63 24 L 62 23 L 62 22 L 61 21 L 60 20 L 59 19 L 59 18 L 58 17 L 57 16 L 57 15 L 56 14 L 55 13 L 54 12 L 54 11 L 53 10 L 52 9 L 51 8 L 51 7 L 50 6 L 49 5 L 49 4 L 48 3 L 47 2 L 46 1 L 45 1 L 44 1 L 43 1 L 42 1 L 41 1 L 40 1 L 39 1 L 38 1 L 37 1 L 36 1 L 35 1 L 34 1 L 33 1 L 32 1 L 31 1 L 30 1 L 29 1 L 28 1 L 27 0 L 26 0 L 25 0 L 24 0 L 23 0 L 22 0 L 21 0 L 20 0 L 19 0 L 18 0 L 17 0 L 16 0 L 15 0 L 14 0 L 13 0 L 12 0 L 11 0 L 10 0 L 9 0 Z" fill="#7EDB28"/>
</svg>