<?xml version="1.0"?><svg version="1.2" baseProfile="tiny-ps" viewBox="0 0 258 258" xmlns="http://www.w3.org/2000/svg" xmlns:xlink="http://www.w3.org/1999/xlink"><title>KumpeAppsLLC</title><g><g fill="#70ce40" transform="matrix(.1 0 0 -.1 0 258)"><path d="M961 2529c-269-28-605-136-790-253l-44-28 6-142 7-141 19-125c95-606 346-1105 771-1530 119-119 286-260 308-260 38 0 311 253 459 425l95 110 83 125c279 419 425 873 461 1426l6 101-23 22c-13 13-78 49-144 81l-120 58-110 36c-141 46-263 72-423 91l-127 15-175-1c-96-1-213-6-259-10z"/></g><g fill="#68b13a" transform="matrix(.1 0 0 -.1 0 258)"><path d="M961 2529c-269-28-605-136-790-253l-44-28 6-142 7-141 19-125c95-606 346-1105 771-1530 119-119 286-260 308-260 38 0 311 253 459 425l95 110 83 125c279 419 425 873 461 1426l6 101-23 22c-13 13-78 49-144 81l-120 58-110 36c-141 46-263 72-423 91l-127 15-175-1c-96-1-213-6-259-10zm544-30c268-27 576-125 764-244l43-26-7-102c-37-585-235-1110-584-1547-96-120-324-351-415-418l-69-52-26 16c-98 64-324 283-447 434-334 411-526 872-589 1410-8 69-15 155-15 192v67l28 19c15 11 64 38 109 61 346 173 744 236 1208 190zm-425-15c-335-30-606-105-817-226l-73-42v-68c0-103 18-245 51-413l30-150 49-145c107-319 233-548 444-810l84-105 118-116c115-111 246-219 267-219 6 0 42 24 81 54 218 165 454 440 615 718 200 344 330 788 343 1167l2 83-19 15c-39 29-212 111-300 143-120 42-257 76-387 95l-108 15-167 4c-93 2-188 2-213 0zm-50-499c105-146 195-267 199-270l8-4 194 269 194 270h52c29 0 53-1 53-3s-72-99-160-217-160-220-160-227 76-158 170-336c93-177 172-330 176-339l6-18h-100l-155 302c-85 166-160 304-165 306l-10 3-47-65-48-65-8 5c-5 2-27 32-50 64-23 33-47 60-53 60l-11-1-155-300c-85-166-160-303-166-306-7-2-30-3-52-1l-40 3 84 160c47 88 128 244 181 346l95 185-161 217c-88 119-161 219-161 222s22 5 49 5h49l192-265zm183 22c1-130 2-237 1-237s-20 26-42 58l-41 59-1 174c0 96-1 178 0 182v8l40-3 41-3 2-238zm127 65v-177l-41-58c-22-31-42-57-45-57-2 0-4 106-4 235v235h90v-178zm0-672v-290h-90v462l43 59c23 32 43 59 45 59 1 0 2-130 2-290zm-162 224 32-42v-473l-40 3c-22 2-40 6-40 11v561l8-9c5-6 23-29 40-51zM700 940c5 0 12 4 15 10 3 5 16 15 28 21l22 12-18-21-19-20 18-29 18-28-25 23c-14 12-29 22-32 22-4 0-12-10-17-22l-9-23 1 50 1 50 4-22c2-13 8-23 13-23zm113-28 10-13 21 3 21 3 6 40 7 40-2-45-1-45-28-3-28-3-15 12-14 11 1 37 2 36 4-30c3-16 10-36 16-43zm160 18c5 0 19 12 32 28l24 27-1-50-1-50-4 28c-5 32-17 34-37 6l-14-21-14 21c-17 28-26 26-31-6l-4-28-1 50-1 50 22-27c13-16 26-28 30-28zm162 36 18-13-6-17-6-16h-60l-10-17-10-18-1 48v47h56l19-14zm125 4v-10h-70v-20l33-2 32-1-33-4-33-4 4-12 4-12 34-6 34-6-42-2-43-1v90h80v-10zm166-52 15-28h-11c-5 0-10 5-10 10v10h-66l-12-12c-20-20-14 0 14 44l27 42 14-20c8-10 21-31 29-46zm102 56 23-7-3-21-3-21-32-3-33-3v-15c0-8-4-14-10-14h-10v38c0 53 11 61 68 46zm127-8 18-13-6-17-6-16h-70l-4-17-5-18-1 48-1 47h56l19-14zm110 5 5-10-26 2-27 2-4-12-5-13h63l6-16 6-16-14-9c-17-11-66-12-73-1l-5 8 36-4 35-4-4 13-5 14-27 3-27 3-6 16-6 15 14 9c19 12 56 11 64 0zm-695-26v-16l33 3 32 3v20l-32 3-33 3v-16zm302 3c-18-18-14-28 8-28h20v14c0 21-15 27-28 14zm108-3v-16l25 3 26 3v20l-26 3-25 3v-16zm110 0v-15h60v30h-60v-15z"/></g><g fill="#52852c" transform="matrix(.1 0 0 -.1 0 258)"><path d="M961 2529c-269-28-605-136-790-253l-44-28 6-142 7-141 19-125c95-606 346-1105 771-1530 119-119 286-260 308-260 38 0 311 253 459 425l95 110 83 125c279 419 425 873 461 1426l6 101-23 22c-13 13-78 49-144 81l-120 58-110 36c-141 46-263 72-423 91l-127 15-175-1c-96-1-213-6-259-10zm619-35c265-40 539-134 685-234l48-33-7-116c-33-561-239-1105-577-1526-129-161-455-475-492-475-31 0-233 179-365 323-404 441-634 948-702 1542l-11 100 3 84 3 84 90 48c217 117 473 191 758 219l92 9 185-4 185-5 105-16zm-640-29c-151-19-255-43-400-91l-135-45-99-52-99-52-11-17-10-17 13-141c30-341 112-641 256-935l64-130 81-125c45-69 116-168 158-220 95-119 292-316 395-394l77-59 53 36c79 55 220 184 309 283 298 332 495 698 598 1109 43 170 68 328 77 486l6 107-58 38c-164 104-452 194-717 223l-97 11-183-1-183-1-95-13zm83-463c204-284 202-282 210-282 3 0 59 75 126 168 66 92 151 210 189 262l68 95 57 3c31 2 57 1 57-2s-72-102-160-221c-88-118-160-218-160-222 0-6 191-373 313-601l49-93-58 3-58 3-98 190c-54 105-124 241-156 303-31 61-59 112-62 112-4 0-28-29-54-65s-51-65-55-65-29 30-55 66l-48 66-8-8c-4-5-72-133-150-284s-148-285-156-297l-14-23h-50c-28 0-50 2-50 5s44 89 98 193c55 103 135 257 179 342l81 155-145 195c-80 107-154 207-165 223l-19 27h58l58-1 178-247zm197 8v-240h-7c-5 0-27 29-50 63l-43 62v355h100v-240zm120 60v-180l-45-62-45-62v484h90v-180zm-166-439 46-59v-462h-100v290c0 160 2 290 4 290 3 0 25-27 50-59zm166-231v-290h-90v471l41 54c23 30 43 55 45 55s4-130 4-290zM705 950c7 0 18 7 25 15s20 15 29 15h16l-25-20-25-19 24-25 24-26h-34l-5 15c-4 8-13 15-20 15-8 0-17-7-20-15-4-8-10-15-15-15h-9v23c0 12 3 33 7 47l7 25 4-17 3-18h14zm105-4v-34l16-6 17-6 13 11 14 11v58h20v-68l-14-11-15-12-33 3-33 3-3 43-3 42h21v-34zm140 7 22-28 20 28c11 15 24 27 29 27h9v-90h-20v55l-19-25-19-24-21 24-20 25-1-27v-28h-20v90h9c5 0 19-12 31-27zm184 21 16-6v-47l-35-7c-19-3-35-10-35-15s-4-9-10-9h-10v90h29c16 0 36-3 45-6zm126-4v-10h-74l10-9c5-5 20-11 34-14l25-4-27-2c-15 0-30-5-33-11l-6-10h71v-20h-90v90h90v-10zm158-32c22-41 22-62 0-40l-12 12h-56v-10c0-5-6-10-14-10h-15l26 45 25 45h23l23-42zm130 13 4-24-14-8c-7-5-23-9-35-9h-23v-10c0-5-4-10-10-10h-10v91l43-3 42-3 3-24zm112 14 12-15-6-15-6-15-30-6c-16-4-30-10-30-15s-7-9-15-9h-15v38c0 47 4 52 45 52h33l12-15zm110 5v-10h-64l10-9c5-5 20-11 34-13l25-3v-40l-42-3-43-3v23l25-6 26-7 11 7 10 7-13 8c-8 5-24 9-36 9h-23v18c0 26 9 32 47 32h33v-10zm-690-26v-15l22 3c12 2 23 9 26 16l4 12h-52v-16zm292-3c4-13 18-16 19-4 0 4-5 9-11 12l-12 4 4-12zm108 4v-15h50v30h-50v-15zm120-1v-15l22 3c12 2 23 9 26 16l4 12h-52v-16z"/></g><g fill="#385a1d" transform="matrix(.1 0 0 -.1 0 258)"><path d="M961 2529c-269-28-605-136-790-253l-44-28 6-142 7-141 19-125c95-606 346-1105 771-1530 119-119 286-260 308-260 38 0 311 253 459 425l95 110 83 125c279 419 425 873 461 1426l6 101-23 22c-13 13-78 49-144 81l-120 58-110 36c-141 46-263 72-423 91l-127 15-175-1c-96-1-213-6-259-10zm549-24 135-16 110-26c191-45 379-119 514-201l43-27-6-130c-25-557-249-1131-606-1558-110-131-288-308-383-381l-77-59-23 10c-40 19-212 170-307 270-124 130-236 272-332 418l-79 120-69 140c-155 318-243 644-271 1012l-11 144 18 20c10 11 72 46 138 79l121 59 105 35c129 42 274 73 417 91l108 13 160 1 160 1 135-15zm-529-36c-120-13-311-53-422-89l-94-30-131-65-131-64-7-17-7-17 11-126c53-633 308-1187 754-1635l111-111 83-63 83-62 17 9c40 22 214 176 297 262 433 454 678 1012 720 1646l7 101-39 25c-76 48-182 97-299 137l-119 41-120 24c-66 13-167 29-224 35l-103 10-152-1c-83-1-189-6-235-10zm53-479c103-143 191-262 194-264 4-2 93 114 197 260l190 263 62 1h63l-158-212c-87-117-161-218-165-225l-7-12 180-342c99-188 180-344 180-346 0-1-26-3-58-3h-57l-139 273c-76 149-148 287-158 305l-20 32-50-65c-28-36-54-65-58-65-5 0-30 29-56 65s-49 65-50 65-73-137-160-305l-158-305h-53c-29 0-53 3-53 6 0 4 79 159 175 344s175 340 175 344-72 103-160 222c-88 118-160 217-160 219 0 3 26 5 58 5h58l188-260zm186 15c0-135-2-245-4-245s-25 29-50 64l-46 65v361h100v-245zm128 69 2-170-50-72c-28-40-53-72-55-72-3 0-5 110-5 246v245l53-3 52-3 3-171zm-174-436 46-62v-466h-100v295c0 162 2 295 4 295s25-28 50-62zm167-233 3-290-52-3-52-3v464l48 62c26 35 48 62 49 61 1 0 3-131 4-291zm435-436 5-9-38-1-38-1 34-8c18-4 37-14 42-22l8-13-14-14-14-14h-62l-11 11-12 12 40 1 39 1-35 12-35 13 1 11c2 27 5 31 27 34 27 4 56-2 63-13zm-1076-5v-15l22 15c12 9 29 16 37 16h14l-18-20-18-19 17-26 16-25h-14c-7 0-19 7-26 15s-16 15-21 15-9-7-9-15v-15h-30v90h30v-16zm112-16 3-33 23-3 22-3v71h30v-70l-25-16-24-16-21 7c-11 3-25 15-30 25l-10 20 6 25c9 35 22 31 26-7zm142 6 17-25 20 25c11 14 25 26 30 26h9v-90h-20v43l-20-18-20-18-19 17-20 18 6-21 5-21h-32v90h28l16-26zm196 7 10-20-16-15-15-16h-49v-10c0-5-7-10-15-10h-15v90h89l11-19zm110 9v-10l-32-1-33-2 28-4 27-4v-28l-27-4-28-4 33-2 32-1v-20h-90v90h90v-10zm160-30c24-47 24-50 5-50-8 0-15 5-15 10v10h-23c-13 0-28-5-34-11s-16-10-22-8l-11 4 26 43 25 42h29l20-40zm134 17 11-18-19-15c-11-8-30-14-43-14h-23v-10c0-5-4-10-10-10h-10v91l41-3 42-3 11-18zm113 7 6-17-10-16-10-16-27-3-26-3v-10c0-5-7-9-15-9h-15v90h91l6-16zm-587-19v-16l23 3 22 3v20l-22 3-23 3v-16zm295-5-6-10h10c6 0 11 5 11 10 0 6-2 10-4 10-3 0-8-4-11-10zm108 8 4-13h36l5 13 4 12h-54l5-12zm117-4v-15l17 3c9 2 18 9 21 16l4 12h-42v-16z"/></g><g fill="#1f3110" transform="matrix(.1 0 0 -.1 0 258)"><path d="M961 2529c-269-28-605-136-790-253l-44-28 6-142 7-141 19-125c95-606 346-1105 771-1530 119-119 286-260 308-260 38 0 311 253 459 425l95 110 83 125c279 419 425 873 461 1426l6 101-23 22c-13 13-78 49-144 81l-120 58-110 36c-141 46-263 72-423 91l-127 15-175-1c-96-1-213-6-259-10zm604-25c137-19 292-56 413-100 97-35 256-111 306-147l29-20-6-141-6-141-21-124c-96-577-345-1063-759-1481-119-120-262-240-286-240-7 0-41 21-76 46l-64 46-151 152-150 151-74 95c-210 273-332 502-435 815l-53 160-26 125c-32 160-56 352-56 457v82l72 42c231 135 542 221 878 243 96 6 351-5 465-20zm-518-35c-287-24-594-110-779-218l-63-37 1-109 2-110 16-109c84-558 329-1054 717-1446 105-106 266-239 289-240 48 0 322 256 466 436 253 316 436 699 513 1075 27 130 49 306 53 413l3 89-100 53c-174 93-357 150-588 184l-138 21-147 3c-81 2-191 0-245-5zm-72-393 130-179 5 179 5 179 53 3 53 3-1-253v-280l11 4 11 4 1 259 2 260h100v-374l6 7c4 4 66 89 139 190l132 182h120l-5-14c-3-7-77-109-164-226l-158-213 3-11c2-6 82-160 178-343 96-182 174-334 174-337s-27-6-59-6h-59l-152 298c-84 163-155 299-157 301-2 3-9-1-16-9l-12-13 11 6 12 7 6-16c3-9 6-141 6-295v-279h-110v470h-20v-470h-111l3 289c2 159 1 287-2 285-2-3-70-132-151-287l-146-282-63-3-62-3 75 143c42 79 123 235 181 347l106 204-7 11c-4 6-78 106-164 223l-157 211 6 7c3 3 31 5 62 3l55-3 130-179zM734 976l27 17 6-7 6-6-17-19-18-20 16-23c29-41 12-54-23-17l-19 21-12-21-11-22-10 6-9 6v43c0 23 3 46 7 50l7 7 12-16 12-17 26 18zm78-23 3-38h40l5 33 5 33h10l10-1 3-37 3-37-17-13c-10-7-28-13-40-13h-23l-15 16-16 15v33c0 58 27 65 32 9zm182 12 25 30 11-11 11-11-3-43-3-43-12-4-11-4-7 22-7 22-9-14-8-14-20 12-19 12-5-20c-3-10-10-19-16-19h-11v48c0 27 3 52 7 56l8 7 22-28 23-28 24 30zm160-1 13-17 6 22 5 21h82v-30l-32-1-33-1 30-7 30-6-1-10c0-6-13-13-30-16l-29-7 38-1 39-1-4-12-5-13-46-3-47-3v64l-18-16-19-17h-53v-32l-12 4-13 5-3 37c-2 21-1 45 3 53l5 16 41-6 41-5 12-18zm266-21 30-48v86l15 5c8 4 31 3 50 0l34-7 6-20 7-20-12-14-12-15h-46l-5-14-6-14-30 2c-16 1-33 5-37 9-12 11-59 8-72-5l-12-12-7 8-7 7 19 36c19 35 42 63 51 63 2 0 17-21 34-47zm231 37 19-11v-47l-16-6c-9-3-24-6-34-6h-18l-6-16-6-15-10 6-10 6v43c0 23 3 46 7 49 10 10 52 8 74-3zm118 1 14-9-6-15-5-15 9-9 10-10-7-16-6-17-24-6c-13-3-35-3-49 0l-25 6v29l38-5 37-4-33 10-33 11-6 16-6 16 18 13c21 16 53 18 74 5zm-634 709c10-11 20-20 23-20s-3 9-13 20-20 20-23 20 3-9 13-20zm25-34c0-2 8-10 18-17l17-14-14 18c-13 16-21 21-21 13zm30-40c0-2 8-10 18-17l17-14-14 18c-13 16-21 21-21 13zm-105-666-6-10h52l-6 10c-3 6-12 10-20 10s-17-4-20-10zm405 0v-10h41l-6 10c-3 6-13 10-21 10s-14-4-14-10zm110 0v-10h40v20h-40v-10zm123 3c9-2 23-2 30 0l12 5h-60l18-5z"/></g><g fill="#030701" transform="matrix(.1 0 0 -.1 0 258)"><path d="M961 2529c-269-28-605-136-790-253l-44-28 6-142 7-141 19-125c95-606 346-1105 771-1530 119-119 286-260 308-260 38 0 311 253 459 425l95 110 83 125c279 419 425 873 461 1426l6 101-23 22c-13 13-78 49-144 81l-120 58-110 36c-141 46-263 72-423 91l-127 15-175-1c-96-1-213-6-259-10zm500-9c293-29 561-109 774-231l75-43v-205l-15-117c-44-331-131-614-278-904l-68-135-84-125c-46-69-121-170-168-225-104-124-310-326-396-389l-64-46-26 16c-110 71-335 288-468 454-219 271-367 547-473 878l-41 127-29 145c-28 139-43 258-54 421l-6 77 20 25 19 24 113 56 113 56 120 40 120 40 125 25c218 44 475 57 691 36zm-526-66c-140-18-327-63-452-110-104-38-252-113-272-138l-13-15 12-132c21-246 58-423 136-651l45-133 79-160 79-160 76-115c147-220 361-458 527-584l77-58 14 5c29 11 176 137 269 231 285 286 493 624 624 1013l44 131 29 149c28 137 44 257 55 410l4 63-26 19c-94 66-290 145-473 190l-124 31-125 15-124 15-176-1-175-1-110-14zm28-351c62-87 121-169 130-183l17-24v365l58-3 57-3 2-258c1-142 4-261 7-265 3-3 6 115 6 261v267h110l2-181 3-181 130 181 130 180 63 1h62v-10c0-5-72-106-160-224-88-119-160-218-160-222 0-3 79-158 175-343 96-186 175-343 175-349v-12h-108l-9 13c-6 6-75 137-154 291l-144 279-5-289-5-289h-100l-5 240-5 240-5-240-5-240h-110l-5 282-5 281-140-270c-77-149-146-277-153-284l-13-14h-98l-6 10-6 9 137 263c76 145 156 299 180 342l42 79-164 218c-90 120-164 223-164 229v10h129l114-157zM708 978l11-11 15 12 15 12 33-3 33-3 3-38 3-38 17 3 17 3 3 37 3 37 42-3 41-4 14-21 14-21 20 25c11 14 26 25 34 25h14v-99l-12-7-11-7-13 17-12 17-7-10-6-11-20 10-19 11v-31h-15c-7 0-18 7-23 16l-9 15-12-15-13-16h-25c-13 0-33 5-44 10l-19 11v72l-20-18-20-18 20-22c11-12 20-24 20-28 0-13-38-7-50 8l-13 15-12-17-12-16-17 6-16 6v44c0 24 3 47 7 50 10 10 28 8 41-5zm432 2 19-10 6 10 6 10h44c50 0 55-5 48-42l-5-27-27-4-26-4 33-2 32-1v-30h-102l-5 18-4 18-32-4-32-5-8-13c-4-8-15-14-22-14h-15v110h36c19 0 44-5 54-10zm282-31 23-42 5 39 5 39 32 3 32 3 21-11 21-11-3-27-3-27-32-3-33-3v-27h-70l-6 9c-7 12-51 11-59-1-6-10-45-14-45-5 0 3 7 17 15 30 8 14 22 36 30 50l15 25h29l23-41zm234 27 19-14 17 14 16 15 34-3 33-3 1-20c1-11 5-28 9-38l7-17-12-15-12-15h-79l-6 16-6 16 14 9 14 9h-17c-9 0-20-4-23-10-3-5-17-10-31-10h-25l-5-15c-4-8-12-15-20-15h-14v110h66l20-14zm-558-33c7-3 16-2 19 1 4 3-2 6-13 5l-19-1 13-5zm400 0c6-2 18-2 25 0l12 5h-50l13-5zm110 0c6-2 18-2 25 0l12 5h-50l13-5zm110-30c6-2 18-2 25 0l12 5h-50l13-5z"/></g></g></svg>